<?xml version="1.0" encoding="utf-8"?>
<!-- Generator: Adobe Illustrator 18.1.1, SVG Export Plug-In . SVG Version: 6.00 Build 0)  -->
<!DOCTYPE svg PUBLIC "-//W3C//DTD SVG 1.1//EN" "http://www.w3.org/Graphics/SVG/1.1/DTD/svg11.dtd">
<svg version="1.1" id="_x35_00px_w_x2F__circle" xmlns="http://www.w3.org/2000/svg" xmlns:xlink="http://www.w3.org/1999/xlink"
	 x="0px" y="0px" viewBox="0 0 20 20" enable-background="new 0 0 20 20" xml:space="preserve">
<path d="M8.349,9.257C8.19,9.138,8.024,9.04,7.852,8.964C7.678,8.886,7.506,8.847,7.333,8.847c-0.319,0-0.571,0.121-0.757,0.361
	c-0.188,0.242-0.281,0.513-0.281,0.812c0,0.327,0.096,0.596,0.287,0.805s0.455,0.314,0.791,0.314c0.173,0,0.345-0.035,0.519-0.104
	c0.173-0.068,0.337-0.154,0.491-0.259c0.155-0.104,0.301-0.222,0.437-0.354c0.137-0.131,0.259-0.262,0.368-0.389
	C9.079,9.917,8.951,9.787,8.806,9.646C8.661,9.505,8.508,9.375,8.349,9.257z M12.627,8.847c-0.182,0-0.358,0.039-0.525,0.117
	c-0.168,0.076-0.327,0.174-0.478,0.293c-0.15,0.118-0.293,0.248-0.43,0.389c-0.137,0.141-0.261,0.271-0.368,0.389
	c0.118,0.137,0.245,0.272,0.382,0.402c0.137,0.133,0.281,0.25,0.438,0.355c0.153,0.104,0.314,0.188,0.483,0.252
	c0.168,0.064,0.349,0.096,0.539,0.096c0.337,0,0.595-0.109,0.777-0.328c0.183-0.219,0.272-0.486,0.272-0.805
	c0-0.318-0.099-0.592-0.293-0.818C13.229,8.961,12.963,8.847,12.627,8.847z M10,0.4c-5.302,0-9.6,4.298-9.6,9.6s4.298,9.6,9.6,9.6
	s9.6-4.298,9.6-9.6S15.302,0.4,10,0.4z M14.835,10.962c-0.108,0.309-0.263,0.58-0.463,0.811c-0.2,0.233-0.448,0.414-0.743,0.546
	c-0.296,0.132-0.625,0.197-0.989,0.197c-0.282,0-0.546-0.043-0.791-0.129c-0.246-0.087-0.476-0.2-0.689-0.342
	c-0.214-0.141-0.416-0.304-0.608-0.49c-0.19-0.188-0.372-0.38-0.546-0.58c-0.19,0.2-0.377,0.393-0.559,0.58
	c-0.183,0.186-0.375,0.35-0.581,0.49c-0.204,0.142-0.427,0.255-0.668,0.342c-0.24,0.086-0.511,0.129-0.812,0.129
	c-0.373,0-0.704-0.065-0.996-0.197c-0.291-0.132-0.542-0.309-0.75-0.532c-0.209-0.224-0.368-0.489-0.478-0.798
	C5.055,10.68,5,10.348,5,9.994C5,9.639,5.052,9.31,5.157,9.005c0.105-0.305,0.258-0.568,0.457-0.792
	c0.2-0.224,0.445-0.399,0.737-0.532c0.29-0.131,0.617-0.197,0.982-0.197c0.3,0,0.575,0.045,0.825,0.137
	c0.25,0.09,0.481,0.211,0.695,0.361C9.068,8.131,9.268,8.304,9.455,8.5c0.187,0.196,0.37,0.402,0.552,0.621
	c0.174-0.209,0.354-0.414,0.539-0.613c0.188-0.201,0.387-0.376,0.602-0.525c0.213-0.15,0.445-0.271,0.695-0.361
	c0.25-0.092,0.521-0.137,0.81-0.137c0.365,0,0.692,0.062,0.984,0.191c0.291,0.127,0.536,0.301,0.736,0.524
	c0.2,0.224,0.354,0.483,0.463,0.784C14.946,9.285,15,9.611,15,9.966C15,10.322,14.946,10.654,14.835,10.962z"/>
</svg>
