<?xml version="1.0" encoding="utf-8"?>
<!-- Generator: Adobe Illustrator 18.1.1, SVG Export Plug-In . SVG Version: 6.00 Build 0)  -->
<!DOCTYPE svg PUBLIC "-//W3C//DTD SVG 1.1//EN" "http://www.w3.org/Graphics/SVG/1.1/DTD/svg11.dtd">
<svg version="1.1" id="Basecamp" xmlns="http://www.w3.org/2000/svg" xmlns:xlink="http://www.w3.org/1999/xlink" x="0px" y="0px"
	 viewBox="0 0 20 20" enable-background="new 0 0 20 20" xml:space="preserve">
<path d="M10,2C5.327,2,0.7,8.481,0.7,14.422C0.7,15.799,5.234,18,10,18s9.3-2.201,9.3-3.578C19.3,8.481,14.673,2,10,2z
	 M10.006,15.615c-5.198,0-6.673-2.068-6.673-2.722c0-1.287,2.13-4.485,2.906-4.485c0.719,0,1.542,1.811,2.314,1.811
	c1.241,0,2.567-3.954,3.579-3.954s4.601,5.178,4.601,6.749C16.733,13.285,15.649,15.615,10.006,15.615z"/>
</svg>
