<?xml version="1.0" encoding="utf-8"?>
<!-- Generator: Adobe Illustrator 18.1.1, SVG Export Plug-In . SVG Version: 6.00 Build 0)  -->
<!DOCTYPE svg PUBLIC "-//W3C//DTD SVG 1.1//EN" "http://www.w3.org/Graphics/SVG/1.1/DTD/svg11.dtd">
<svg version="1.1" id="Behance" xmlns="http://www.w3.org/2000/svg" xmlns:xlink="http://www.w3.org/1999/xlink" x="0px" y="0px"
	 viewBox="0 0 20 20" enable-background="new 0 0 20 20" xml:space="preserve">
<path d="M8.072,9.301c0,0,1.892-0.147,1.892-2.459c0-2.315-1.548-3.441-3.51-3.441H0v12.926h6.454c0,0,3.941,0.129,3.941-3.816
	C10.394,12.51,10.566,9.301,8.072,9.301z M2.844,5.697h3.61c0,0,0.878,0,0.878,1.344c0,1.346-0.516,1.541-1.102,1.541H2.844V5.697z
	 M6.271,14.029H2.844v-3.455h3.61c0,0,1.308-0.018,1.308,1.775C7.762,13.861,6.785,14.018,6.271,14.029z M15.649,6.688
	c-4.771,0-4.767,4.967-4.767,4.967s-0.326,4.941,4.767,4.941c0,0,4.243,0.254,4.243-3.437h-2.182c0,0,0.072,1.391-1.988,1.391
	c0,0-2.184,0.152-2.184-2.25h6.423C19.962,12.299,20.67,6.688,15.649,6.688z M17.59,10.574h-4.074c0,0,0.266-1.992,2.182-1.992
	S17.59,10.574,17.59,10.574z M18.097,4.16H12.98v1.594h5.117V4.16z"/>
</svg>
