<?xml version="1.0" encoding="utf-8"?>
<!-- Generator: Adobe Illustrator 18.1.1, SVG Export Plug-In . SVG Version: 6.00 Build 0)  -->
<!DOCTYPE svg PUBLIC "-//W3C//DTD SVG 1.1//EN" "http://www.w3.org/Graphics/SVG/1.1/DTD/svg11.dtd">
<svg version="1.1" id="Dribbble" xmlns="http://www.w3.org/2000/svg" xmlns:xlink="http://www.w3.org/1999/xlink" x="0px" y="0px"
	 viewBox="0 0 20 20" enable-background="new 0 0 20 20" xml:space="preserve">
<path d="M9.565,7.421C8.207,5.007,6.754,3.038,6.648,2.893C4.457,3.929,2.822,5.948,2.311,8.38C2.517,8.384,5.793,8.423,9.565,7.421
	z M10.543,10.061c0.102-0.033,0.206-0.064,0.309-0.094c-0.197-0.447-0.412-0.895-0.637-1.336C6.169,9.843,2.287,9.755,2.15,9.751
	c-0.003,0.084-0.007,0.166-0.007,0.25c0,2.019,0.763,3.861,2.016,5.252l-0.005-0.006C4.154,15.247,6.304,11.433,10.543,10.061z
	 M5.171,16.194V16.19c-0.058-0.045-0.12-0.086-0.178-0.135C5.099,16.14,5.171,16.194,5.171,16.194z M8.118,2.372
	C8.111,2.374,8.103,2.376,8.103,2.376c0.006-0.002,0.014-0.002,0.014-0.002L8.118,2.372z M15.189,4.104
	C13.805,2.886,11.99,2.143,10,2.143c-0.639,0-1.258,0.078-1.852,0.221c0.12,0.16,1.595,2.119,2.938,4.584
	C14.048,5.839,15.167,4.136,15.189,4.104z M10,19.2c-5.08,0-9.199-4.119-9.199-9.199C0.8,4.919,4.919,0.8,10,0.8
	c5.082,0,9.2,4.119,9.2,9.201C19.2,15.081,15.082,19.2,10,19.2z M11.336,11.286c-4.611,1.607-6.134,4.838-6.165,4.904
	c1.334,1.041,3.006,1.666,4.828,1.666c1.088,0,2.125-0.221,3.067-0.621c-0.116-0.689-0.573-3.096-1.679-5.967
	C11.371,11.274,11.354,11.28,11.336,11.286z M11.69,8.12c0.184,0.373,0.358,0.754,0.523,1.139c0.059,0.135,0.114,0.272,0.17,0.406
	c2.713-0.342,5.385,0.238,5.473,0.256c-0.019-1.863-0.686-3.572-1.787-4.912C16.051,5.032,14.79,6.852,11.69,8.12z M12.861,10.905
	c1.031,2.836,1.449,5.142,1.529,5.611c1.764-1.191,3.018-3.08,3.367-5.27C17.601,11.196,15.401,10.499,12.861,10.905z"/>
</svg>
