<?xml version="1.0" encoding="utf-8"?>
<!-- Generator: Adobe Illustrator 18.1.1, SVG Export Plug-In . SVG Version: 6.00 Build 0)  -->
<svg version="1.1" id="Evernote" xmlns="http://www.w3.org/2000/svg" xmlns:xlink="http://www.w3.org/1999/xlink" x="0px" y="0px"
	 viewBox="0 0 20 20" enable-background="new 0 0 20 20" xml:space="preserve">
<path d="M17.3,4.3c0-1.2-1.7-1.3-1.7-1.3l-4.1-0.3c0,0-0.1-1.1-0.9-1.5C9.8,0.9,8.9,1,8.3,1C7.6,1,7.5,1.9,7.5,2.6
	c0,0.8,0,1.7,0,2.2c0,1-0.4,1.4-1.6,1.4H3.6c-0.6,0-1.1,0.1-1.1,0.6c0,0.5,0.8,5,1.8,6c0.6,0.6,4.3,1,5.1,1s0.5-2.3,0.7-2.3
	s0.5,1.3,1.7,1.6c1.2,0.3,2.9,0.2,3,1.1c0.1,1.2,0.2,2.6-0.5,2.7l-1.7,0.1c-1.2-0.1-0.9-1.4-0.3-1.4c0.5,0,0.8,0,0.8,0l0.1-1.4
	c0,0-2.7-0.3-2.8,1.5c-0.1,1.7,0.2,2.4,0.4,2.6c0.2,0.2,0.6,0.5,3.9,0.5C19,19,17.3,5.5,17.3,4.3z M15.4,10.3
	C15.3,10.5,14.6,10,14,10c-0.6,0-1.3,0.3-1.5,0.1c-0.2-0.2,0.1-2,1.3-2S15.6,10.1,15.4,10.3z M5.3,4.6c-0.5,0-2.9,0-2.9,0l3.5-3.4
	c0,0-0.1,2.8-0.1,3C5.8,4.4,5.7,4.6,5.3,4.6z"/>
</svg>
