<?xml version="1.0" encoding="utf-8"?>
<!-- Generator: Adobe Illustrator 18.1.1, SVG Export Plug-In . SVG Version: 6.00 Build 0)  -->
<!DOCTYPE svg PUBLIC "-//W3C//DTD SVG 1.1//EN" "http://www.w3.org/Graphics/SVG/1.1/DTD/svg11.dtd">
<svg version="1.1" id="Flickr_w_x2F__circle" xmlns="http://www.w3.org/2000/svg" xmlns:xlink="http://www.w3.org/1999/xlink"
	 x="0px" y="0px" viewBox="0 0 20 20" enable-background="new 0 0 20 20" xml:space="preserve">
<path d="M10,0.4c-5.302,0-9.6,4.298-9.6,9.6s4.298,9.6,9.6,9.6s9.6-4.298,9.6-9.6S15.302,0.4,10,0.4z M7.436,12
	c-1.096,0-1.982-0.895-1.982-2c0-1.105,0.887-2,1.982-2c1.094,0,1.982,0.895,1.982,2C9.418,11.105,8.529,12,7.436,12z M12.565,12
	c-1.095,0-1.983-0.895-1.983-2c0-1.105,0.888-2,1.983-2c1.096,0,1.982,0.895,1.982,2C14.547,11.105,13.66,12,12.565,12z"/>
</svg>
