<?xml version="1.0" encoding="utf-8"?>
<!-- Generator: Adobe Illustrator 18.1.1, SVG Export Plug-In . SVG Version: 6.00 Build 0)  -->
<!DOCTYPE svg PUBLIC "-//W3C//DTD SVG 1.1//EN" "http://www.w3.org/Graphics/SVG/1.1/DTD/svg11.dtd">
<svg version="1.1" id="Github" xmlns="http://www.w3.org/2000/svg" xmlns:xlink="http://www.w3.org/1999/xlink" x="0px" y="0px"
	 viewBox="0 0 20 20" enable-background="new 0 0 20 20" xml:space="preserve">
<path d="M13.18,11.309c-0.718,0-1.3,0.807-1.3,1.799c0,0.994,0.582,1.801,1.3,1.801s1.3-0.807,1.3-1.801
	C14.479,12.116,13.898,11.309,13.18,11.309z M17.706,6.626c0.149-0.365,0.155-2.439-0.635-4.426c0,0-1.811,0.199-4.551,2.08
	c-0.575-0.16-1.548-0.238-2.519-0.238c-0.973,0-1.945,0.078-2.52,0.238C4.74,2.399,2.929,2.2,2.929,2.2
	C2.14,4.187,2.148,6.261,2.295,6.626C1.367,7.634,0.8,8.845,0.8,10.497c0,7.186,5.963,7.301,7.467,7.301
	c0.342,0,1.018,0.002,1.734,0.002c0.715,0,1.392-0.002,1.732-0.002c1.506,0,7.467-0.115,7.467-7.301
	C19.2,8.845,18.634,7.634,17.706,6.626z M10.028,16.915H9.972c-3.771,0-6.709-0.449-6.709-4.115c0-0.879,0.31-1.693,1.047-2.369
	c1.227-1.127,3.305-0.531,5.662-0.531c0.01,0,0.02,0,0.029,0c0.01,0,0.018,0,0.027,0c2.357,0,4.436-0.596,5.664,0.531
	c0.735,0.676,1.045,1.49,1.045,2.369C16.737,16.466,13.8,16.915,10.028,16.915z M6.821,11.309c-0.718,0-1.3,0.807-1.3,1.799
	c0,0.994,0.582,1.801,1.3,1.801c0.719,0,1.301-0.807,1.301-1.801C8.122,12.116,7.54,11.309,6.821,11.309z"/>
</svg>
