<?xml version="1.0" encoding="utf-8"?>
<!-- Generator: Adobe Illustrator 18.1.1, SVG Export Plug-In . SVG Version: 6.00 Build 0)  -->
<!DOCTYPE svg PUBLIC "-//W3C//DTD SVG 1.1//EN" "http://www.w3.org/Graphics/SVG/1.1/DTD/svg11.dtd">
<svg version="1.1" id="Github_w_x2F__circle" xmlns="http://www.w3.org/2000/svg" xmlns:xlink="http://www.w3.org/1999/xlink"
	 x="0px" y="0px" viewBox="0 0 20 20" enable-background="new 0 0 20 20" xml:space="preserve">
<path d="M10.015,9.949c0,0-0.01,0-0.015,0H9.985c-1.191,0-2.24-0.303-2.861,0.268c-0.371,0.342-0.527,0.754-0.527,1.197
	c0,1.852,1.483,2.08,3.389,2.08h0.029c1.905,0,3.389-0.229,3.389-2.08c0-0.443-0.156-0.856-0.527-1.197
	C12.255,9.646,11.206,9.949,10.015,9.949z M8.393,12.48c-0.363,0-0.656-0.408-0.656-0.91c0-0.502,0.293-0.908,0.656-0.908
	c0.363,0,0.657,0.406,0.657,0.908C9.051,12.072,8.757,12.48,8.393,12.48z M11.606,12.48c-0.363,0-0.657-0.408-0.657-0.91
	c0-0.502,0.294-0.908,0.657-0.908c0.362,0,0.656,0.406,0.656,0.908C12.263,12.072,11.969,12.48,11.606,12.48z M10,0.4
	c-5.302,0-9.6,4.298-9.6,9.6s4.298,9.6,9.6,9.6s9.6-4.298,9.6-9.6S15.302,0.4,10,0.4z M10.876,13.939c-0.172,0-0.514,0-0.876,0.002
	c-0.362-0.002-0.704-0.002-0.876-0.002c-0.76,0-3.772-0.059-3.772-3.689c0-0.834,0.286-1.445,0.755-1.955
	c-0.074-0.184-0.078-1.232,0.32-2.236c0,0,0.916,0.1,2.301,1.051C9.017,7.029,9.509,6.988,10,6.988s0.982,0.041,1.273,0.121
	c1.385-0.951,2.301-1.051,2.301-1.051c0.398,1.004,0.395,2.053,0.32,2.236c0.469,0.51,0.755,1.121,0.755,1.955
	C14.648,13.881,11.636,13.939,10.876,13.939z"/>
</svg>
