<?xml version="1.0" encoding="utf-8"?>
<!-- Generator: Adobe Illustrator 18.1.1, SVG Export Plug-In . SVG Version: 6.00 Build 0)  -->
<!DOCTYPE svg PUBLIC "-//W3C//DTD SVG 1.1//EN" "http://www.w3.org/Graphics/SVG/1.1/DTD/svg11.dtd">
<svg version="1.1" id="Google_Hangouts" xmlns="http://www.w3.org/2000/svg" xmlns:xlink="http://www.w3.org/1999/xlink" x="0px"
	 y="0px" viewBox="0 0 20 20" enable-background="new 0 0 20 20" xml:space="preserve">
<path d="M10,0C5.25,0,1.4,3.806,1.4,8.5C1.4,13.194,5.25,17,10,17v3c3.368-1.672,8.6-5.305,8.6-11.5C18.6,3.806,14.75,0,10,0z
	 M9,9.741c0,1.328-1.021,2.422-2.32,2.538c-0.123,0.011-0.228-0.088-0.228-0.211v-0.852c0-0.106,0.079-0.194,0.184-0.21
	C7.167,10.93,7.573,10.519,7.683,10H5.732C5.328,10,5,9.672,5,9.268V6.732C5,6.328,5.328,6,5.732,6h2.536C8.672,6,9,6.328,9,6.732
	V9.741z M15,9.741c0,1.328-1.021,2.422-2.32,2.538c-0.123,0.011-0.228-0.088-0.228-0.211v-0.852c0-0.106,0.079-0.194,0.184-0.21
	c0.531-0.077,0.937-0.487,1.047-1.006h-1.951C11.328,10,11,9.672,11,9.268V6.732C11,6.328,11.328,6,11.732,6h2.536
	C14.672,6,15,6.328,15,6.732V9.741z"/>
</svg>
