<?xml version="1.0" encoding="utf-8"?>
<!-- Generator: Adobe Illustrator 18.1.1, SVG Export Plug-In . SVG Version: 6.00 Build 0)  -->
<!DOCTYPE svg PUBLIC "-//W3C//DTD SVG 1.1//EN" "http://www.w3.org/Graphics/SVG/1.1/DTD/svg11.dtd">
<svg version="1.1" id="Grooveshark" xmlns="http://www.w3.org/2000/svg" xmlns:xlink="http://www.w3.org/1999/xlink" x="0px"
	 y="0px" viewBox="0 0 20 20" enable-background="new 0 0 20 20" xml:space="preserve">
<g>
	<path d="M10,1.199C5.139,1.199,1.2,5.139,1.2,10c0,4.859,3.939,8.801,8.801,8.801c4.86,0,8.8-3.941,8.8-8.801
		C18.8,5.139,14.861,1.199,10,1.199z M13.538,10.338c-0.476-0.666-0.963-1.32-1.497-1.939c-0.501-0.584-1.034-1.141-1.614-1.645
		C9.849,6.25,9.219,5.772,8.527,5.438C8.062,5.213,7.583,5.045,7.088,4.902C7.032,4.887,6.88,4.818,6.836,4.887
		C6.808,4.93,6.83,5.01,6.834,5.057C6.848,5.16,6.86,5.262,6.873,5.365c0.148,1.228,0.204,2.525-0.178,3.719
		C6.491,9.727,6.117,10.314,5.62,10.77c-0.413,0.379-1.002,0.76-1.587,0.732c-0.108-0.004-0.218-0.023-0.324-0.059
		C3.083,11.232,3.046,10.557,3.042,10C3.038,9.402,3.11,8.805,3.258,8.225c0.045-0.178,0.101-0.353,0.16-0.527
		c0.685-1.986,2.27-3.602,4.259-4.307C8.421,3.127,9.209,2.994,10,2.994c2.326,0,4.539,1.195,5.817,3.137
		c0.32,0.488,0.577,1.016,0.766,1.566h-0.003c0.061,0.174,0.117,0.35,0.163,0.527c0.146,0.58,0.22,1.178,0.216,1.775
		c-0.008,1.125-0.37,2.367-1.783,1.771C14.509,11.488,13.952,10.918,13.538,10.338z"/>
</g>
</svg>
