<svg id="Instagram_w_circle" data-name="Instagram w/circle" xmlns="http://www.w3.org/2000/svg" viewBox="0 0 19.19995 19.19995"><title>instagram-with-circle</title><path d="M13.89777,7.05115a1.65591,1.65591,0,0,0-.94891-0.94891,2.76589,2.76589,0,0,0-.92841-0.17218C11.49316,5.906,11.33508,5.90094,10,5.90094S8.50684,5.906,7.97955,5.93005a2.76589,2.76589,0,0,0-.92841.17218,1.65591,1.65591,0,0,0-.94891.94891,2.76589,2.76589,0,0,0-.17218.92841C5.906,8.50684,5.90094,8.665,5.90094,10s0.00507,1.49316.02911,2.02045a2.76553,2.76553,0,0,0,.17218.92841,1.65591,1.65591,0,0,0,.94891.94891,2.76589,2.76589,0,0,0,.92841.17218c0.52716,0.024.6853,0.02911,2.02045,0.02911s1.49329-.00507,2.02045-0.02911a2.76589,2.76589,0,0,0,.92841-0.17218,1.65591,1.65591,0,0,0,.94891-0.94891,2.76553,2.76553,0,0,0,.17218-0.92841c0.024-.52728.02911-0.68536,0.02911-2.02045S14.094,8.50684,14.06995,7.97955A2.76589,2.76589,0,0,0,13.89777,7.05115ZM10,12.56757A2.56757,2.56757,0,1,1,12.56757,10,2.56756,2.56756,0,0,1,10,12.56757ZM12.669,7.931a0.6,0.6,0,1,1,.6-0.6A0.6,0.6,0,0,1,12.669,7.931Z" transform="translate(-0.40002 -0.40002)"/><circle cx="9.59998" cy="9.59998" r="1.66669"/><path d="M10,0.4A9.6,9.6,0,1,0,19.6,10,9.59995,9.59995,0,0,0,10,.4Zm4.96991,11.6615a3.67039,3.67039,0,0,1-.23242,1.21368,2.55612,2.55612,0,0,1-1.46228,1.46228,3.67039,3.67039,0,0,1-1.21368.23242C11.5282,14.99426,11.35791,15,10,15s-1.5282-.00574-2.06152-0.03009a3.67039,3.67039,0,0,1-1.21368-.23242,2.55612,2.55612,0,0,1-1.46228-1.46228,3.67039,3.67039,0,0,1-.23242-1.21368C5.00574,11.5282,5,11.35791,5,10s0.00574-1.5282.03009-2.06152a3.67039,3.67039,0,0,1,.23242-1.21368A2.55612,2.55612,0,0,1,6.72479,5.26251a3.67039,3.67039,0,0,1,1.21368-.23242C8.4718,5.00574,8.64209,5,10,5s1.5282,0.00574,2.06152.03009a3.67039,3.67039,0,0,1,1.21368.23242,2.55612,2.55612,0,0,1,1.46228,1.46228,3.67039,3.67039,0,0,1,.23242,1.21368C14.99426,8.4718,15,8.64209,15,10S14.99426,11.5282,14.96991,12.06152Z" transform="translate(-0.40002 -0.40002)"/></svg>