<?xml version="1.0" encoding="utf-8"?>
<!-- Generator: Adobe Illustrator 18.1.1, SVG Export Plug-In . SVG Version: 6.00 Build 0)  -->
<!DOCTYPE svg PUBLIC "-//W3C//DTD SVG 1.1//EN" "http://www.w3.org/Graphics/SVG/1.1/DTD/svg11.dtd">
<svg version="1.1" id="Lastfm_w_x2F__circle" xmlns="http://www.w3.org/2000/svg" xmlns:xlink="http://www.w3.org/1999/xlink"
	 x="0px" y="0px" viewBox="0 0 20 20" enable-background="new 0 0 20 20" xml:space="preserve">
<path d="M10,0.4c-5.302,0-9.6,4.298-9.6,9.6s4.298,9.6,9.6,9.6s9.6-4.298,9.6-9.6S15.302,0.4,10,0.4z M12.644,12.83
	c-2.002,0-2.697-0.91-3.066-2.043L9.207,9.621C8.93,8.77,8.706,8.154,7.688,8.154c-0.706,0-1.626,0.463-1.626,1.898
	c0,1.119,0.77,1.82,1.568,1.82c0.677,0,1.084-0.381,1.296-0.572l0.354,1.012c-0.241,0.174-0.734,0.517-1.707,0.517
	c-1.346,0-2.625-0.957-2.625-2.73c0-1.844,1.333-2.93,2.705-2.93c1.54,0,2.113,0.56,2.6,2.078l0.382,1.166
	c0.278,0.852,0.865,1.471,2.034,1.471c0.787,0,1.204-0.176,1.204-0.607c0-0.338-0.197-0.584-0.787-0.723l-0.787-0.188
	c-0.961-0.232-1.343-0.734-1.343-1.529c0-1.271,1.018-1.668,2.061-1.668c1.181,0,1.898,0.432,1.99,1.482l-1.157,0.139
	c-0.046-0.5-0.347-0.711-0.903-0.711c-0.509,0-0.821,0.234-0.821,0.631c0,0.35,0.15,0.559,0.66,0.676l0.74,0.164
	c0.995,0.233,1.528,0.723,1.528,1.668C15.053,12.387,14.08,12.83,12.644,12.83z"/>
</svg>
