<?xml version="1.0" encoding="utf-8"?>
<!-- Generator: Adobe Illustrator 18.1.1, SVG Export Plug-In . SVG Version: 6.00 Build 0)  -->
<!DOCTYPE svg PUBLIC "-//W3C//DTD SVG 1.1//EN" "http://www.w3.org/Graphics/SVG/1.1/DTD/svg11.dtd">
<svg version="1.1" id="LinkedIn_w_x2F__circle" xmlns="http://www.w3.org/2000/svg" xmlns:xlink="http://www.w3.org/1999/xlink"
	 x="0px" y="0px" viewBox="0 0 20 20" enable-background="new 0 0 20 20" xml:space="preserve">
<path d="M10,0.4c-5.302,0-9.6,4.298-9.6,9.6s4.298,9.6,9.6,9.6s9.6-4.298,9.6-9.6S15.302,0.4,10,0.4z M7.65,13.979H5.706V7.723H7.65
	V13.979z M6.666,6.955c-0.614,0-1.011-0.435-1.011-0.973c0-0.549,0.409-0.971,1.036-0.971c0.627,0,1.011,0.422,1.023,0.971
	C7.714,6.52,7.318,6.955,6.666,6.955z M14.75,13.979h-1.944v-3.467c0-0.807-0.282-1.355-0.985-1.355
	c-0.537,0-0.856,0.371-0.997,0.728c-0.052,0.127-0.065,0.307-0.065,0.486v3.607H8.814v-4.26c0-0.781-0.025-1.434-0.051-1.996h1.689
	l0.089,0.869h0.039c0.256-0.408,0.883-1.01,1.932-1.01c1.279,0,2.238,0.857,2.238,2.699V13.979z"/>
</svg>
