<?xml version="1.0" encoding="utf-8"?>
<!-- Generator: Adobe Illustrator 18.1.1, SVG Export Plug-In . SVG Version: 6.00 Build 0)  -->
<!DOCTYPE svg PUBLIC "-//W3C//DTD SVG 1.1//EN" "http://www.w3.org/Graphics/SVG/1.1/DTD/svg11.dtd">
<svg version="1.1" id="Picasa" xmlns="http://www.w3.org/2000/svg" xmlns:xlink="http://www.w3.org/1999/xlink" x="0px" y="0px"
	 viewBox="0 0 20 20" enable-background="new 0 0 20 20" xml:space="preserve">
<path d="M5.808,1.823C2.719,3.411,0.8,6.544,0.8,10.021c0,0.633,0.08,1.275,0.221,1.918L8.97,4.7
	C8.122,3.929,5.894,1.901,5.808,1.823z M13.793,1.626C12.593,1.081,11.317,0.8,9.999,0.8c-0.934,0-1.855,0.156-2.749,0.441
	l6.543,5.951V1.626z M15.192,2.438v10.617h3.485c0.343-0.982,0.522-2.004,0.522-3.035C19.2,6.987,17.677,4.148,15.192,2.438z
	 M1.463,13.429c0.674,1.693,1.857,3.15,3.368,4.184v-7.25l-2.045,1.861C2.088,12.858,1.506,13.39,1.463,13.429z M6.23,18.425
	c0.935,0.422,1.913,0.682,2.92,0.775h1.689c3.019-0.281,5.727-2.068,7.199-4.744H6.23V18.425z"/>
</svg>
