<?xml version="1.0" encoding="utf-8"?>
<!-- Generator: Adobe Illustrator 18.1.1, SVG Export Plug-In . SVG Version: 6.00 Build 0)  -->
<!DOCTYPE svg PUBLIC "-//W3C//DTD SVG 1.1//EN" "http://www.w3.org/Graphics/SVG/1.1/DTD/svg11.dtd">
<svg version="1.1" id="Pinterest_w_x2F__circle" xmlns="http://www.w3.org/2000/svg" xmlns:xlink="http://www.w3.org/1999/xlink"
	 x="0px" y="0px" viewBox="0 0 20 20" enable-background="new 0 0 20 20" xml:space="preserve">
<path d="M10,0.4c-5.302,0-9.6,4.298-9.6,9.6s4.298,9.6,9.6,9.6s9.6-4.298,9.6-9.6S15.302,0.4,10,0.4z M10.657,12.275
	c-0.616-0.047-0.874-0.352-1.356-0.644c-0.265,1.391-0.589,2.725-1.549,3.422c-0.297-2.104,0.434-3.682,0.774-5.359
	C7.947,8.719,8.595,6.758,9.817,7.24c1.503,0.596-1.302,3.625,0.581,4.004c1.966,0.394,2.769-3.412,1.55-4.648
	c-1.762-1.787-5.127-0.041-4.713,2.517c0.1,0.625,0.747,0.815,0.258,1.678c-1.127-0.25-1.464-1.139-1.42-2.324
	c0.069-1.94,1.743-3.299,3.421-3.486c2.123-0.236,4.115,0.779,4.391,2.777C14.194,10.012,12.926,12.451,10.657,12.275z"/>
</svg>
