<?xml version="1.0" encoding="utf-8"?>
<!-- Generator: Adobe Illustrator 18.1.1, SVG Export Plug-In . SVG Version: 6.00 Build 0)  -->
<!DOCTYPE svg PUBLIC "-//W3C//DTD SVG 1.1//EN" "http://www.w3.org/Graphics/SVG/1.1/DTD/svg11.dtd">
<svg version="1.1" id="Rdio" xmlns="http://www.w3.org/2000/svg" xmlns:xlink="http://www.w3.org/1999/xlink" x="0px" y="0px"
	 viewBox="0 0 20 20" enable-background="new 0 0 20 20" xml:space="preserve">
<path d="M16.203,10.001c0,4.307-3.448,7.799-7.701,7.799S0.8,14.308,0.8,10.001C0.8,5.692,4.248,2.2,8.501,2.2
	c0.611,0,1.204,0.076,1.774,0.213v4.441c-0.902-0.33-2.01-0.281-3.053,0.223c-1.885,0.91-2.841,2.957-2.135,4.57
	c0.705,1.615,2.807,2.188,4.691,1.277c1.299-0.627,2.443-2.137,2.443-4.029V3.171c0.162,0.09,0.32,0.188,0.475,0.289
	c1.464,0.92,3.638,2.152,6.178,2.281c0.99,0.049-0.389,2.541-2.738,3.236C16.18,9.311,16.203,9.653,16.203,10.001z"/>
</svg>
