<?xml version="1.0" encoding="utf-8"?>
<!-- Generator: Adobe Illustrator 18.1.1, SVG Export Plug-In . SVG Version: 6.00 Build 0)  -->
<!DOCTYPE svg PUBLIC "-//W3C//DTD SVG 1.1//EN" "http://www.w3.org/Graphics/SVG/1.1/DTD/svg11.dtd">
<svg version="1.1" id="Renren" xmlns="http://www.w3.org/2000/svg" xmlns:xlink="http://www.w3.org/1999/xlink" x="0px" y="0px"
	 viewBox="0 0 20 20" enable-background="new 0 0 20 20" xml:space="preserve">
<path d="M8.468,0.865C4.117,1.594,0.8,5.377,0.8,9.936c0,2.266,0.82,4.338,2.179,5.941c3.221-1.559,5.472-5.086,5.489-9.191V0.865z
	 M10.002,12.258c-0.573,2.373-2.285,4.4-4.418,5.748C6.894,18.725,8.4,19.135,10,19.135c1.602,0,3.108-0.41,4.418-1.129
	C12.285,16.658,10.574,14.631,10.002,12.258z M11.535,6.643c0,4.123,2.256,7.668,5.487,9.234c1.358-1.603,2.178-3.676,2.178-5.941
	c0-4.559-3.315-8.34-7.665-9.07V6.643z"/>
</svg>
