<?xml version="1.0" encoding="utf-8"?>
<!-- Generator: Adobe Illustrator 18.1.1, SVG Export Plug-In . SVG Version: 6.00 Build 0)  -->
<!DOCTYPE svg PUBLIC "-//W3C//DTD SVG 1.1//EN" "http://www.w3.org/Graphics/SVG/1.1/DTD/svg11.dtd">
<svg version="1.1" id="Scribd" xmlns="http://www.w3.org/2000/svg" xmlns:xlink="http://www.w3.org/1999/xlink" x="0px" y="0px"
	 viewBox="0 0 20 20" enable-background="new 0 0 20 20" xml:space="preserve">
<path d="M4.643,18.284c0,0.224-0.072,0.492-0.148,0.716h5.737c0.328-0.377,0.513-0.831,0.513-1.342c0-1.385-1.644-2.154-5.241-3.842
	L4.998,13.58C3.225,12.737,1.912,11.995,1,11.111v4.398c0.176-0.024,0.359-0.042,0.558-0.042
	C4.559,15.468,4.643,18.256,4.643,18.284z M17,1h-3.738c1.748,1.178,2.467,2.842,2.467,4.142c0,2.194-1.836,2.905-2.727,2.905
	l-0.271,0.002c-2.046,0-3.09-1.247-3.104-3.707C9.506,4.246,8.939,3.889,7.28,3.889c-1.96,0-2.773,1.543-2.773,2.369
	c0,0.973,0.543,2.055,4.484,3.382c6.736,2.254,6.736,5.255,6.736,7.903v0.026c0,0.437-0.031,0.924-0.117,1.431H17c1.1,0,2-0.899,2-2
	V3C19,1.9,18.1,1,17,1z"/>
</svg>
