<?xml version="1.0" encoding="utf-8"?>
<!-- Generator: Adobe Illustrator 18.1.1, SVG Export Plug-In . SVG Version: 6.00 Build 0)  -->
<!DOCTYPE svg PUBLIC "-//W3C//DTD SVG 1.1//EN" "http://www.w3.org/Graphics/SVG/1.1/DTD/svg11.dtd">
<svg version="1.1" id="Skype" xmlns="http://www.w3.org/2000/svg" xmlns:xlink="http://www.w3.org/1999/xlink" x="0px" y="0px"
	 viewBox="0 0 20 20" enable-background="new 0 0 20 20" xml:space="preserve">
<path d="M18.671,12.037c0.132-0.623,0.203-1.272,0.203-1.938c0-4.986-3.93-9.029-8.777-9.029c-0.511,0-1.012,0.047-1.5,0.133
	C7.812,0.695,6.885,0.4,5.89,0.4C3.079,0.4,0.8,2.744,0.8,5.637c0,0.965,0.256,1.871,0.699,2.648
	C1.383,8.871,1.321,9.479,1.321,10.1c0,4.986,3.93,9.029,8.775,9.029c0.551,0,1.087-0.051,1.607-0.15
	c0.717,0.396,1.535,0.621,2.406,0.621c2.811,0,5.09-2.344,5.09-5.236C19.2,13.527,19.009,12.738,18.671,12.037z M14.599,14.416
	c-0.406,0.59-1.006,1.059-1.783,1.391c-0.769,0.33-1.692,0.496-2.742,0.496c-1.26,0-2.317-0.227-3.143-0.678
	c-0.59-0.328-1.076-0.771-1.445-1.318c-0.372-0.555-0.561-1.104-0.561-1.633c0-0.33,0.123-0.617,0.365-0.852
	c0.24-0.232,0.549-0.352,0.916-0.352c0.301,0,0.562,0.094,0.773,0.277c0.202,0.176,0.375,0.438,0.514,0.773
	c0.156,0.367,0.326,0.676,0.505,0.92c0.172,0.234,0.42,0.432,0.735,0.586c0.318,0.154,0.748,0.232,1.275,0.232
	c0.725,0,1.32-0.158,1.768-0.473c0.438-0.309,0.65-0.676,0.65-1.127c0-0.357-0.111-0.637-0.34-0.857
	c-0.238-0.228-0.555-0.408-0.936-0.531c-0.399-0.127-0.941-0.266-1.611-0.41c-0.91-0.201-1.683-0.439-2.299-0.707
	c-0.63-0.275-1.137-0.658-1.508-1.137C5.357,8.533,5.165,7.924,5.165,7.209c0-0.682,0.2-1.297,0.596-1.828
	c0.393-0.525,0.965-0.935,1.703-1.217C8.192,3.887,9.06,3.746,10.04,3.746c0.783,0,1.473,0.094,2.047,0.277
	c0.578,0.186,1.066,0.436,1.449,0.744c0.387,0.311,0.674,0.643,0.854,0.986c0.182,0.35,0.275,0.695,0.275,1.031
	c0,0.322-0.121,0.615-0.361,0.871c-0.24,0.258-0.543,0.387-0.9,0.387c-0.324,0-0.58-0.082-0.756-0.242
	c-0.164-0.148-0.336-0.383-0.524-0.717c-0.219-0.428-0.484-0.766-0.788-1.002c-0.295-0.232-0.788-0.35-1.466-0.35
	c-0.629,0-1.141,0.131-1.519,0.387C7.983,6.367,7.806,6.65,7.806,6.984c0,0.207,0.058,0.379,0.176,0.525
	c0.125,0.158,0.301,0.295,0.523,0.41C8.735,8.039,8.972,8.133,9.21,8.201c0.244,0.07,0.654,0.172,1.215,0.307
	c0.711,0.156,1.363,0.332,1.939,0.521c0.585,0.193,1.09,0.43,1.502,0.705c0.42,0.283,0.754,0.645,0.989,1.076
	c0.237,0.434,0.357,0.969,0.357,1.59C15.213,13.145,15.006,13.822,14.599,14.416z"/>
</svg>
