<?xml version="1.0" encoding="utf-8"?>
<!-- Generator: Adobe Illustrator 18.1.1, SVG Export Plug-In . SVG Version: 6.00 Build 0)  -->
<!DOCTYPE svg PUBLIC "-//W3C//DTD SVG 1.1//EN" "http://www.w3.org/Graphics/SVG/1.1/DTD/svg11.dtd">
<svg version="1.1" id="Skype_w_x2F__circle" xmlns="http://www.w3.org/2000/svg" xmlns:xlink="http://www.w3.org/1999/xlink"
	 x="0px" y="0px" viewBox="0 0 20 20" enable-background="new 0 0 20 20" xml:space="preserve">
<path d="M12.164,9.852c-0.23-0.154-0.514-0.287-0.841-0.395C11,9.35,10.635,9.252,10.236,9.164C9.922,9.09,9.693,9.031,9.557,8.992
	c-0.133-0.037-0.266-0.09-0.396-0.158C9.037,8.77,8.938,8.693,8.868,8.605c-0.065-0.082-0.098-0.18-0.098-0.295
	c0-0.188,0.1-0.346,0.305-0.484c0.212-0.143,0.499-0.215,0.851-0.215c0.38,0,0.656,0.064,0.821,0.193
	c0.17,0.133,0.318,0.322,0.44,0.562c0.106,0.188,0.201,0.318,0.294,0.4c0.099,0.09,0.241,0.137,0.423,0.137
	c0.201,0,0.37-0.072,0.505-0.217c0.134-0.143,0.202-0.307,0.202-0.488c0-0.188-0.053-0.383-0.154-0.576
	c-0.101-0.193-0.262-0.379-0.477-0.553c-0.215-0.174-0.487-0.312-0.811-0.416c-0.322-0.104-0.709-0.156-1.147-0.156
	c-0.55,0-1.035,0.078-1.443,0.234C8.166,6.889,7.845,7.119,7.625,7.414C7.403,7.711,7.291,8.055,7.291,8.437
	c0,0.4,0.107,0.74,0.318,1.012c0.207,0.268,0.492,0.482,0.844,0.637c0.346,0.15,0.778,0.283,1.289,0.396
	c0.374,0.08,0.678,0.158,0.901,0.23c0.214,0.068,0.391,0.168,0.525,0.297c0.127,0.123,0.189,0.279,0.189,0.481
	c0,0.252-0.119,0.457-0.363,0.631c-0.251,0.176-0.584,0.264-0.99,0.264c-0.296,0-0.535-0.043-0.714-0.131
	c-0.177-0.086-0.315-0.195-0.412-0.326c-0.101-0.137-0.195-0.311-0.282-0.516c-0.078-0.189-0.176-0.334-0.289-0.434
	c-0.117-0.104-0.264-0.154-0.432-0.154c-0.207,0-0.379,0.066-0.514,0.195c-0.136,0.133-0.205,0.293-0.205,0.479
	c0,0.295,0.106,0.604,0.315,0.912c0.207,0.309,0.479,0.557,0.81,0.74c0.462,0.252,1.054,0.379,1.76,0.379
	c0.588,0,1.104-0.094,1.536-0.277c0.435-0.186,0.771-0.449,0.998-0.779c0.228-0.332,0.344-0.713,0.344-1.129
	c0-0.348-0.067-0.648-0.2-0.891C12.586,10.211,12.399,10.01,12.164,9.852z M10,0.4c-5.302,0-9.6,4.298-9.6,9.6s4.298,9.6,9.6,9.6
	s9.6-4.298,9.6-9.6S15.302,0.4,10,0.4z M12.301,15.375c-0.487,0-0.946-0.125-1.348-0.348c-0.291,0.057-0.592,0.086-0.9,0.086
	c-2.713,0-4.914-2.266-4.914-5.057c0-0.35,0.035-0.69,0.1-1.018C4.99,8.604,4.847,8.098,4.847,7.557
	c0-1.619,1.276-2.934,2.851-2.934c0.557,0,1.076,0.166,1.516,0.451C9.486,5.025,9.768,5,10.053,5c2.715,0,4.915,2.264,4.915,5.057
	c0,0.371-0.039,0.734-0.113,1.084c0.189,0.393,0.296,0.834,0.296,1.303C15.15,14.062,13.875,15.375,12.301,15.375z"/>
</svg>
