<?xml version="1.0" encoding="utf-8"?>
<!-- Generator: Adobe Illustrator 18.1.1, SVG Export Plug-In . SVG Version: 6.00 Build 0)  -->
<!DOCTYPE svg PUBLIC "-//W3C//DTD SVG 1.1//EN" "http://www.w3.org/Graphics/SVG/1.1/DTD/svg11.dtd">
<svg version="1.1" id="Slideshare" xmlns="http://www.w3.org/2000/svg" xmlns:xlink="http://www.w3.org/1999/xlink" x="0px" y="0px"
	 viewBox="0 0 20 20" enable-background="new 0 0 20 20" xml:space="preserve">
<path d="M13,7.08c1.381,0,2.5-1.119,2.5-2.5s-1.119-2.5-2.5-2.5s-2.5,1.119-2.5,2.5S11.62,7.08,13,7.08z M18.845,5.943
	C15.265,8.498,13.616,8.051,12,8c-1.118-0.057-1.5,0.298-1.5,1.08l0.001,6c0,5,8.421,3.43,5.165-4.949
	c1.671-0.959,3.076-2.434,3.876-3.412C19.953,6.111,19.514,5.474,18.845,5.943z M7,2.08c-1.381,0-2.5,1.119-2.5,2.5
	s1.119,2.5,2.5,2.5s2.5-1.119,2.5-2.5S8.38,2.08,7,2.08z M8,8C6.384,8.051,4.735,8.498,1.155,5.943
	C0.486,5.474,0.047,6.111,0.458,6.718c0.8,0.979,2.205,2.453,3.876,3.412c-3.256,8.379,5.165,9.949,5.165,4.949l0.001-6
	C9.5,8.298,9.118,7.943,8,8z"/>
</svg>
