<?xml version="1.0" encoding="utf-8"?>
<!-- Generator: Adobe Illustrator 18.1.1, SVG Export Plug-In . SVG Version: 6.00 Build 0)  -->
<!DOCTYPE svg PUBLIC "-//W3C//DTD SVG 1.1//EN" "http://www.w3.org/Graphics/SVG/1.1/DTD/svg11.dtd">
<svg version="1.1" id="Stumbleupon" xmlns="http://www.w3.org/2000/svg" xmlns:xlink="http://www.w3.org/1999/xlink" x="0px"
	 y="0px" viewBox="0 0 20 20" enable-background="new 0 0 20 20" xml:space="preserve">
<path d="M11.051,8.059l1.365,0.66l2.059-0.66V6.865C14.475,4.402,12.467,2.4,10,2.4S5.525,4.402,5.525,6.865v6.27
	c0,0.578-0.472,1.049-1.051,1.049c-0.58,0-1.051-0.471-1.051-1.049V10.51H0v2.625C0,15.596,2.007,17.6,4.475,17.6
	c2.467,0,4.474-2.004,4.474-4.465v-6.27c0-0.578,0.472-1.049,1.052-1.049c0.579,0,1.051,0.471,1.051,1.049V8.059z M16.576,10.51
	v2.625c0,0.578-0.471,1.049-1.051,1.049c-0.58,0-1.051-0.471-1.051-1.049v-2.678l-2.059,0.658l-1.365-0.658v2.678
	c0,2.461,2.008,4.465,4.475,4.465S20,15.596,20,13.135V10.51H16.576z"/>
</svg>
