<?xml version="1.0" encoding="utf-8"?>
<!-- Generator: Adobe Illustrator 18.1.1, SVG Export Plug-In . SVG Version: 6.00 Build 0)  -->
<!DOCTYPE svg PUBLIC "-//W3C//DTD SVG 1.1//EN" "http://www.w3.org/Graphics/SVG/1.1/DTD/svg11.dtd">
<svg version="1.1" id="Stumbleupon_w_x2F__circle" xmlns="http://www.w3.org/2000/svg" xmlns:xlink="http://www.w3.org/1999/xlink"
	 x="0px" y="0px" viewBox="0 0 20 20" enable-background="new 0 0 20 20" xml:space="preserve">
<path d="M10,0.4c-5.302,0-9.6,4.298-9.6,9.6s4.298,9.6,9.6,9.6s9.6-4.298,9.6-9.6S15.302,0.4,10,0.4z M10,7.785
	c-0.293,0-0.531,0.238-0.531,0.529v3.168c0,1.244-1.015,2.256-2.261,2.256s-2.261-1.012-2.261-2.256v-1.326h1.729v1.326
	c0,0.293,0.238,0.529,0.531,0.529c0.293,0,0.531-0.236,0.531-0.529V8.314C7.74,7.07,8.753,6.059,10,6.059
	c1.246,0,2.261,1.012,2.261,2.256v0.603l-1.04,0.334l-0.69-0.334V8.314C10.531,8.023,10.294,7.785,10,7.785z M15.053,11.482
	c0,1.244-1.015,2.256-2.261,2.256c-1.247,0-2.262-1.012-2.262-2.256v-1.354l0.69,0.334l1.04-0.334v1.354
	c0,0.293,0.238,0.529,0.531,0.529c0.293,0,0.53-0.236,0.53-0.529v-1.326h1.731V11.482z"/>
</svg>
