<?xml version="1.0" encoding="utf-8"?>
<!-- Generator: Adobe Illustrator 18.1.1, SVG Export Plug-In . SVG Version: 6.00 Build 0)  -->
<!DOCTYPE svg PUBLIC "-//W3C//DTD SVG 1.1//EN" "http://www.w3.org/Graphics/SVG/1.1/DTD/svg11.dtd">
<svg version="1.1" id="Twitter_w_x2F__circle" xmlns="http://www.w3.org/2000/svg" xmlns:xlink="http://www.w3.org/1999/xlink"
	 x="0px" y="0px" viewBox="0 0 20 20" enable-background="new 0 0 20 20" xml:space="preserve">
<path d="M10,0.4c-5.302,0-9.6,4.298-9.6,9.6s4.298,9.6,9.6,9.6s9.6-4.298,9.6-9.6S15.302,0.4,10,0.4z M13.905,8.264
	c0.004,0.082,0.005,0.164,0.005,0.244c0,2.5-1.901,5.381-5.379,5.381c-1.068,0-2.062-0.312-2.898-0.85
	c0.147,0.018,0.298,0.025,0.451,0.025c0.886,0,1.701-0.301,2.348-0.809c-0.827-0.016-1.525-0.562-1.766-1.312
	c0.115,0.021,0.233,0.033,0.355,0.033c0.172,0,0.34-0.023,0.498-0.066c-0.865-0.174-1.517-0.938-1.517-1.854V9.033
	C6.257,9.174,6.549,9.26,6.859,9.27C6.351,8.93,6.018,8.352,6.018,7.695c0-0.346,0.093-0.672,0.256-0.951
	c0.933,1.144,2.325,1.896,3.897,1.977c-0.033-0.139-0.049-0.283-0.049-0.432c0-1.043,0.846-1.891,1.891-1.891
	c0.543,0,1.035,0.23,1.38,0.598c0.431-0.086,0.835-0.242,1.2-0.459c-0.141,0.441-0.44,0.812-0.831,1.047
	c0.383-0.047,0.747-0.148,1.086-0.299C14.595,7.664,14.274,7.998,13.905,8.264z"/>
</svg>
