<?xml version="1.0" encoding="utf-8"?>
<!-- Generator: Adobe Illustrator 18.1.0, SVG Export Plug-In . SVG Version: 6.00 Build 0)  -->
<!DOCTYPE svg PUBLIC "-//W3C//DTD SVG 1.1//EN" "http://www.w3.org/Graphics/SVG/1.1/DTD/svg11.dtd">
<svg version="1.1" id="Aircraft_landing" xmlns="http://www.w3.org/2000/svg" xmlns:xlink="http://www.w3.org/1999/xlink" x="0px"
	 y="0px" viewBox="0 0 20 20" enable-background="new 0 0 20 20" xml:space="preserve">
<path d="M18.752,16.038c-0.097,0.266-0.822,1.002-6.029-0.878l-5.105-1.843C5.841,12.676,3.34,11.668,2.36,11.1
	c-0.686-0.397-0.836-1.282-0.836-1.282S1.361,6.862,1.261,6.134c-0.1-0.728,0.095-0.853,0.796-0.492
	c0.436,0.225,1.865,2.562,2.464,3.567C6.033,9.59,7.383,9.97,8.014,10.158C7.757,8.441,7.274,5.23,7.101,4.225
	C6.935,3.262,7.651,3.69,7.651,3.69c0.331,0.19,0.983,0.661,1.206,1.002c1.522,2.326,3.672,6.6,3.836,6.928
	c0.896,0.28,2.277,0.733,3.102,1.03C17.951,13.429,18.882,15.684,18.752,16.038z"/>
</svg>
