<?xml version="1.0" encoding="utf-8"?>
<!-- Generator: Adobe Illustrator 18.1.0, SVG Export Plug-In . SVG Version: 6.00 Build 0)  -->
<!DOCTYPE svg PUBLIC "-//W3C//DTD SVG 1.1//EN" "http://www.w3.org/Graphics/SVG/1.1/DTD/svg11.dtd">
<svg version="1.1" id="Beamed_note" xmlns="http://www.w3.org/2000/svg" xmlns:xlink="http://www.w3.org/1999/xlink" x="0px"
	 y="0px" viewBox="0 0 20 20" enable-background="new 0 0 20 20" xml:space="preserve">
<path d="M17,1l-0.002,13c0,1.243-1.301,3-3.748,3C12.007,17,11,16.347,11,15.125c0-1.589,1.445-2.55,3-2.55
	c0.432,0,0.754,0.059,1,0.123V5.364L8,6.637L8,16H7.998c0,1.243-1.301,3-3.748,3C3.007,19,2,18.347,2,17.125
	c0-1.589,1.445-2.55,3-2.55c0.432,0,0.754,0.059,1,0.123V3L17,1z"/>
</svg>
