<?xml version="1.0" encoding="utf-8"?>
<!-- Generator: Adobe Illustrator 18.1.0, SVG Export Plug-In . SVG Version: 6.00 Build 0)  -->
<!DOCTYPE svg PUBLIC "-//W3C//DTD SVG 1.1//EN" "http://www.w3.org/Graphics/SVG/1.1/DTD/svg11.dtd">
<svg version="1.1" id="Block" xmlns="http://www.w3.org/2000/svg" xmlns:xlink="http://www.w3.org/1999/xlink" x="0px" y="0px"
	 viewBox="0 0 20 20" enable-background="new 0 0 20 20" xml:space="preserve">
<path d="M10,0.4c-5.303,0-9.601,4.298-9.601,9.6c0,5.303,4.298,9.601,9.601,9.601c5.301,0,9.6-4.298,9.6-9.601
	C19.6,4.698,15.301,0.4,10,0.4z M2.399,10c0-4.197,3.402-7.6,7.6-7.6c1.829,0,3.506,0.647,4.817,1.723L4.122,14.817
	C3.046,13.505,2.399,11.829,2.399,10z M9.999,17.599c-1.828,0-3.505-0.646-4.815-1.722L15.878,5.184
	C16.953,6.496,17.6,8.171,17.6,10C17.6,14.197,14.196,17.599,9.999,17.599z"/>
</svg>
