<?xml version="1.0" encoding="utf-8"?>
<!-- Generator: Adobe Illustrator 18.1.1, SVG Export Plug-In . SVG Version: 6.00 Build 0)  -->
<!DOCTYPE svg PUBLIC "-//W3C//DTD SVG 1.1//EN" "http://www.w3.org/Graphics/SVG/1.1/DTD/svg11.dtd">
<svg version="1.1" id="Bug" xmlns="http://www.w3.org/2000/svg" xmlns:xlink="http://www.w3.org/1999/xlink" x="0px" y="0px"
	 viewBox="0 0 20 20" enable-background="new 0 0 20 20" xml:space="preserve">
<path d="M10,1C7.7907715,1,6,2.7908325,6,5h8C14,2.7908325,12.2092285,1,10,1z M19,10h-3V7.5031738
	c0-0.02771-0.0065918-0.0535278-0.0080566-0.0808716l2.2150879-2.21521c0.390625-0.3905029,0.390625-1.0236816,0-1.4141846
	c-0.3903809-0.390564-1.0236816-0.390564-1.4140625,0l-2.215332,2.21521C14.550293,6.0066528,14.5246582,6,14.4970703,6H5.5029297
	C5.4753418,6,5.449707,6.0066528,5.4223633,6.0081177l-2.215332-2.21521c-0.3903809-0.390564-1.0236816-0.390564-1.4140625,0
	c-0.390625,0.3905029-0.390625,1.0236816,0,1.4141846l2.2150879,2.21521C4.0065918,7.449646,4,7.4754639,4,7.5031738V10H1
	c-0.5522461,0-1,0.4476929-1,1c0,0.5522461,0.4477539,1,1,1h3c0,0.7799683,0.15625,1.520813,0.4272461,2.2037354
	c-0.0441895,0.0316162-0.0947266,0.0494995-0.1342773,0.0891724l-2.8286133,2.8283691
	c-0.3903809,0.390564-0.3903809,1.0237427,0,1.4142456c0.390625,0.3905029,1.0239258,0.3905029,1.4143066,0L5.4802246,15.93396
	C6.3725586,16.9555054,7.6027832,17.6751099,9,17.9100342V8h2v9.9100342
	c1.3972168-0.2349243,2.6274414-0.9545288,3.5197754-1.9760132l2.6015625,2.6015015
	c0.3903809,0.3905029,1.0236816,0.3905029,1.4143066,0c0.3903809-0.3905029,0.3903809-1.0236816,0-1.4142456l-2.8286133-2.8283691
	c-0.0395508-0.0396729-0.0900879-0.0575562-0.1342773-0.0891724C15.84375,13.520813,16,12.7799683,16,12h3
	c0.5522461,0,1-0.4477539,1-1C20,10.4476929,19.5522461,10,19,10z"/>
</svg>
