<?xml version="1.0" encoding="utf-8"?>
<!-- Generator: Adobe Illustrator 18.1.0, SVG Export Plug-In . SVG Version: 6.00 Build 0)  -->
<!DOCTYPE svg PUBLIC "-//W3C//DTD SVG 1.1//EN" "http://www.w3.org/Graphics/SVG/1.1/DTD/svg11.dtd">
<svg version="1.1" id="Calculator" xmlns="http://www.w3.org/2000/svg" xmlns:xlink="http://www.w3.org/1999/xlink" x="0px" y="0px"
	 viewBox="0 0 20 20" enable-background="new 0 0 20 20" xml:space="preserve">
<path d="M14.6,1H5.398C4.629,1,4,1.629,4,2.4V17.6c0,0.77,0.629,1.4,1.398,1.4H14.6c0.769,0,1.4-0.631,1.4-1.4V2.4
	C16,1.629,15.369,1,14.6,1z M7,12c0.689,0,1.25,0.447,1.25,1S7.689,14,7,14c-0.69,0-1.25-0.447-1.25-1S6.31,12,7,12z M5.75,10
	c0-0.553,0.56-1,1.25-1c0.689,0,1.25,0.447,1.25,1c0,0.553-0.561,1-1.25,1C6.31,11,5.75,10.553,5.75,10z M7,15
	c0.689,0,1.25,0.447,1.25,1S7.689,17,7,17c-0.69,0-1.25-0.447-1.25-1S6.31,15,7,15z M10,12c0.689,0,1.25,0.447,1.25,1
	s-0.561,1-1.25,1c-0.69,0-1.25-0.447-1.25-1S9.31,12,10,12z M8.75,10c0-0.553,0.56-1,1.25-1c0.689,0,1.25,0.447,1.25,1
	c0,0.553-0.561,1-1.25,1C9.31,11,8.75,10.553,8.75,10z M10,15c0.689,0,1.25,0.447,1.25,1s-0.561,1-1.25,1c-0.69,0-1.25-0.447-1.25-1
	S9.31,15,10,15z M13,12c0.689,0,1.25,0.447,1.25,1s-0.561,1-1.25,1c-0.69,0-1.25-0.447-1.25-1S12.31,12,13,12z M11.75,10
	c0-0.553,0.56-1,1.25-1c0.689,0,1.25,0.447,1.25,1c0,0.553-0.561,1-1.25,1C12.31,11,11.75,10.553,11.75,10z M13,15
	c0.689,0,1.25,0.447,1.25,1s-0.561,1-1.25,1c-0.69,0-1.25-0.447-1.25-1S12.31,15,13,15z M5,7V4h10v3H5z"/>
</svg>
