<?xml version="1.0" encoding="utf-8"?>
<!-- Generator: Adobe Illustrator 18.1.0, SVG Export Plug-In . SVG Version: 6.00 Build 0)  -->
<!DOCTYPE svg PUBLIC "-//W3C//DTD SVG 1.1//EN" "http://www.w3.org/Graphics/SVG/1.1/DTD/svg11.dtd">
<svg version="1.1" id="CCW" xmlns="http://www.w3.org/2000/svg" xmlns:xlink="http://www.w3.org/1999/xlink" x="0px" y="0px"
	 viewBox="0 0 20 20" enable-background="new 0 0 20 20" xml:space="preserve">
<path d="M0.685,10h2.372V9.795c0.108-4.434,3.724-7.996,8.169-7.996c4.515,0,8.174,3.672,8.174,8.201s-3.659,8.199-8.174,8.199
	c-1.898,0-3.645-0.65-5.033-1.738l1.406-1.504c1.016,0.748,2.27,1.193,3.627,1.193c3.386,0,6.131-2.754,6.131-6.15
	c0-3.396-2.745-6.15-6.131-6.15c-3.317,0-6.018,2.643-6.125,5.945V10h2.672l-3.494,3.894L0.685,10z"/>
</svg>
