<?xml version="1.0" encoding="utf-8"?>
<!-- Generator: Adobe Illustrator 18.1.1, SVG Export Plug-In . SVG Version: 6.00 Build 0)  -->
<!DOCTYPE svg PUBLIC "-//W3C//DTD SVG 1.1//EN" "http://www.w3.org/Graphics/SVG/1.1/DTD/svg11.dtd">
<svg version="1.1" id="Chevron_circled_right" xmlns="http://www.w3.org/2000/svg" xmlns:xlink="http://www.w3.org/1999/xlink"
	 x="0px" y="0px" viewBox="0 0 20 20" enable-background="new 0 0 20 20" xml:space="preserve">
<path d="M11,10L8.698,7.494c-0.196-0.198-0.196-0.519,0-0.718c0.196-0.197,0.515-0.197,0.71,0l2.807,2.864
	c0.196,0.199,0.196,0.52,0,0.717l-2.807,2.864c-0.195,0.199-0.514,0.198-0.71,0c-0.196-0.197-0.196-0.518,0-0.717L11,10z M10,0.4
	c5.302,0,9.6,4.298,9.6,9.6c0,5.303-4.298,9.6-9.6,9.6S0.4,15.303,0.4,10C0.4,4.698,4.698,0.4,10,0.4z M10,18.354
	c4.613,0,8.354-3.74,8.354-8.354c0-4.614-3.741-8.354-8.354-8.354c-4.615,0-8.354,3.74-8.354,8.354
	C1.645,14.614,5.385,18.354,10,18.354z"/>
</svg>
