<?xml version="1.0" encoding="utf-8"?>
<!-- Generator: Adobe Illustrator 18.1.0, SVG Export Plug-In . SVG Version: 6.00 Build 0)  -->
<!DOCTYPE svg PUBLIC "-//W3C//DTD SVG 1.1//EN" "http://www.w3.org/Graphics/SVG/1.1/DTD/svg11.dtd">
<svg version="1.1" id="Cog" xmlns="http://www.w3.org/2000/svg" xmlns:xlink="http://www.w3.org/1999/xlink" x="0px" y="0px"
	 viewBox="0 0 20 20" enable-background="new 0 0 20 20" xml:space="preserve">
<path d="M16.783,10c0-1.049,0.646-1.875,1.617-2.443c-0.176-0.584-0.407-1.145-0.692-1.672c-1.089,0.285-1.97-0.141-2.711-0.883
	c-0.741-0.74-0.968-1.621-0.683-2.711c-0.527-0.285-1.088-0.518-1.672-0.691C12.074,2.57,11.047,3.215,10,3.215
	c-1.048,0-2.074-0.645-2.643-1.615C6.772,1.773,6.213,2.006,5.686,2.291c0.285,1.09,0.059,1.971-0.684,2.711
	C4.262,5.744,3.381,6.17,2.291,5.885C2.006,6.412,1.774,6.973,1.6,7.557C2.57,8.125,3.215,8.951,3.215,10
	c0,1.047-0.645,2.074-1.615,2.643c0.175,0.584,0.406,1.144,0.691,1.672c1.09-0.285,1.971-0.059,2.711,0.682
	c0.741,0.742,0.969,1.623,0.684,2.711c0.527,0.285,1.087,0.518,1.672,0.693c0.568-0.973,1.595-1.617,2.643-1.617
	c1.047,0,2.074,0.645,2.643,1.617c0.584-0.176,1.144-0.408,1.672-0.693c-0.285-1.088-0.059-1.969,0.683-2.711
	c0.741-0.74,1.622-1.166,2.711-0.883c0.285-0.527,0.517-1.086,0.692-1.672C17.429,11.873,16.783,11.047,16.783,10z M10,13.652
	c-2.018,0-3.653-1.635-3.653-3.652c0-2.018,1.636-3.654,3.653-3.654c2.018,0,3.652,1.637,3.652,3.654
	C13.652,12.018,12.018,13.652,10,13.652z"/>
</svg>
