<?xml version="1.0" encoding="iso-8859-1"?>
<!-- Generator: Adobe Illustrator 18.1.0, SVG Export Plug-In . SVG Version: 6.00 Build 0)  -->
<!DOCTYPE svg PUBLIC "-//W3C//DTD SVG 1.1//EN" "http://www.w3.org/Graphics/SVG/1.1/DTD/svg11.dtd">
<svg version="1.1" id="Compass" xmlns="http://www.w3.org/2000/svg" xmlns:xlink="http://www.w3.org/1999/xlink" x="0px" y="0px"
	 viewBox="0 0 20 20" style="enable-background:new 0 0 20 20;" xml:space="preserve">
<path d="M5.454,14.548c0,0,4.568-0.627,6.518-2.576s2.576-6.518,2.576-6.518S9.979,6.081,8.03,8.03S5.454,14.548,5.454,14.548z
	 M9.017,9.015c0.818-0.818,2.385-1.4,3.729-1.762c-0.361,1.342-0.945,2.92-1.76,3.732c-0.543,0.545-1.426,0.545-1.969,0
	C8.472,10.442,8.472,9.56,9.017,9.015z M10.001,0.4C4.698,0.4,0.4,4.698,0.4,10c0,5.303,4.298,9.601,9.601,9.601
	c5.301,0,9.6-4.298,9.6-9.601C19.601,4.698,15.302,0.4,10.001,0.4z M10,17.6c-4.197,0-7.6-3.402-7.6-7.6c0-4.197,3.402-7.6,7.6-7.6
	c4.197,0,7.601,3.402,7.601,7.6C17.601,14.197,14.197,17.6,10,17.6z"/>
</svg>
