<?xml version="1.0" encoding="utf-8"?>
<!-- Generator: Adobe Illustrator 18.1.1, SVG Export Plug-In . SVG Version: 6.00 Build 0)  -->
<!DOCTYPE svg PUBLIC "-//W3C//DTD SVG 1.1//EN" "http://www.w3.org/Graphics/SVG/1.1/DTD/svg11.dtd">
<svg version="1.1" id="Fast_forward" xmlns="http://www.w3.org/2000/svg" xmlns:xlink="http://www.w3.org/1999/xlink" x="0px"
	 y="0px" viewBox="0 0 20 20" enable-background="new 0 0 20 20" xml:space="preserve">
<path d="M9.244,9.52L2.041,4.571C1.469,4.188,1,4.469,1,5.196v9.609c0,0.725,0.469,1.006,1.041,0.625l7.203-4.951
	c0,0,0.279-0.199,0.279-0.478C9.523,9.721,9.244,9.52,9.244,9.52z M18.6,10.001c0,0.279-0.279,0.478-0.279,0.478l-7.203,4.951
	c-0.572,0.381-1.041,0.1-1.041-0.625V5.196c0-0.727,0.469-1.008,1.041-0.625L18.32,9.52C18.32,9.52,18.6,9.721,18.6,10.001z"/>
</svg>
