<?xml version="1.0" encoding="utf-8"?>
<!-- Generator: Adobe Illustrator 18.1.1, SVG Export Plug-In . SVG Version: 6.00 Build 0)  -->
<!DOCTYPE svg PUBLIC "-//W3C//DTD SVG 1.1//EN" "http://www.w3.org/Graphics/SVG/1.1/DTD/svg11.dtd">
<svg version="1.1" id="Jump_tp_start" xmlns="http://www.w3.org/2000/svg" xmlns:xlink="http://www.w3.org/1999/xlink" x="0px"
	 y="0px" viewBox="0 0 20 20" enable-background="new 0 0 20 20" xml:space="preserve">
<path d="M14.959,4.571L7.756,9.52c0,0-0.279,0.201-0.279,0.481s0.279,0.479,0.279,0.479l7.203,4.951
	C15.531,15.811,16,15.53,16,14.805V5.196C16,4.469,15.531,4.188,14.959,4.571z M6,4H5C4.447,4,4,4.048,4,4.6V15.4
	C4,15.952,4.447,16,5,16h1c0.553,0,1-0.048,1-0.6V4.6C7,4.048,6.553,4,6,4z"/>
</svg>
