<?xml version="1.0" encoding="utf-8"?>
<!-- Generator: Adobe Illustrator 18.1.1, SVG Export Plug-In . SVG Version: 6.00 Build 0)  -->
<!DOCTYPE svg PUBLIC "-//W3C//DTD SVG 1.1//EN" "http://www.w3.org/Graphics/SVG/1.1/DTD/svg11.dtd">
<svg version="1.1" id="Paus" xmlns="http://www.w3.org/2000/svg" xmlns:xlink="http://www.w3.org/1999/xlink" x="0px" y="0px"
	 viewBox="0 0 20 20" enable-background="new 0 0 20 20" xml:space="preserve">
<path d="M15,3h-2c-0.553,0-1,0.048-1,0.6V16.4c0,0.552,0.447,0.6,1,0.6h2c0.553,0,1-0.048,1-0.6V3.6C16,3.048,15.553,3,15,3z M7,3H5
	C4.447,3,4,3.048,4,3.6V16.4C4,16.952,4.447,17,5,17h2c0.553,0,1-0.048,1-0.6V3.6C8,3.048,7.553,3,7,3z"/>
</svg>
