<?xml version="1.0" encoding="utf-8"?>
<!-- Generator: Adobe Illustrator 18.1.0, SVG Export Plug-In . SVG Version: 6.00 Build 0)  -->
<!DOCTYPE svg PUBLIC "-//W3C//DTD SVG 1.1//EN" "http://www.w3.org/Graphics/SVG/1.1/DTD/svg11.dtd">
<svg version="1.1" id="Copy" xmlns="http://www.w3.org/2000/svg" xmlns:xlink="http://www.w3.org/1999/xlink" x="0px" y="0px"
	 viewBox="0 0 20 20" enable-background="new 0 0 20 20" xml:space="preserve">
<path d="M11,0H3C2.447,0,2,0.447,2,1v12c0,0.552,0.447,1,1,1h5v2h2v-2H8.001v-2H10v-2H8v2H4V2h6v4h2V1C12,0.448,11.553,0,11,0z M8,7
	v1h2V6H9C8.447,6,8,6.447,8,7z M12,20h2v-2h-2V20z M12,8h2V6h-2V8z M8,19c0,0.552,0.447,1,1,1h1v-2H8V19z M17,6h-1v2h2V7
	C18,6.448,17.553,6,17,6z M16,20h1c0.553,0,1-0.448,1-1v-1h-2V20z M16,12h2v-2h-2V12z M16,16h2v-2h-2V16z"/>
</svg>
