<?xml version="1.0" encoding="utf-8"?>
<!-- Generator: Adobe Illustrator 18.1.1, SVG Export Plug-In . SVG Version: 6.00 Build 0)  -->
<svg version="1.1" id="Creative_Commons_NoDerivs" xmlns="http://www.w3.org/2000/svg" xmlns:xlink="http://www.w3.org/1999/xlink"
	 x="0px" y="0px" viewBox="0 0 20 20" enable-background="new 0 0 20 20" xml:space="preserve">
<path d="M16.8,3.2C15,1.3,12.7,0.4,10,0.4c-2.7,0-4.9,0.9-6.8,2.8C1.3,5.1,0.4,7.4,0.4,10c0,2.6,0.9,4.9,2.8,6.8
	c1.9,1.9,4.1,2.8,6.8,2.8c2.6,0,4.9-1,6.9-2.9c1.8-1.8,2.7-4.1,2.7-6.7C19.6,7.3,18.7,5,16.8,3.2z M15.6,15.5
	c-1.6,1.6-3.5,2.4-5.6,2.4c-2.1,0-4-0.8-5.6-2.3C2.9,14,2.1,12.1,2.1,10c0-2.1,0.8-4,2.4-5.6C6,2.9,7.8,2.1,10,2.1s4,0.8,5.6,2.3
	c1.5,1.5,2.3,3.4,2.3,5.6C17.9,12.2,17.1,14,15.6,15.5z M6.6,10.8h7v1.7h-7V10.8z M6.6,7.7h7v1.7h-7V7.7z"/>
</svg>
