<?xml version="1.0" encoding="utf-8"?>
<!-- Generator: Adobe Illustrator 18.1.1, SVG Export Plug-In . SVG Version: 6.00 Build 0)  -->
<svg version="1.1" id="Creative_Commons_Remix" xmlns="http://www.w3.org/2000/svg" xmlns:xlink="http://www.w3.org/1999/xlink"
	 x="0px" y="0px" viewBox="0 0 20 20" enable-background="new 0 0 20 20" xml:space="preserve">
<path d="M16.8,3.2C15,1.3,12.7,0.4,10,0.4c-2.7,0-4.9,0.9-6.8,2.8C1.3,5.1,0.4,7.4,0.4,10c0,2.6,0.9,4.9,2.8,6.8
	c1.9,1.9,4.1,2.8,6.8,2.8c2.6,0,4.9-1,6.9-2.9c1.8-1.8,2.7-4.1,2.7-6.7C19.6,7.3,18.7,5,16.8,3.2z M15.6,15.5
	c-1.6,1.6-3.5,2.4-5.6,2.4c-2.1,0-4-0.8-5.6-2.3C2.9,14,2.1,12.1,2.1,10c0-2.1,0.8-4,2.4-5.6C6,2.9,7.8,2.1,10,2.1
	c2.2,0,4,0.8,5.6,2.3c1.5,1.5,2.3,3.4,2.3,5.6C17.9,12.2,17.1,14,15.6,15.5z M16.3,10.2l-1.9-0.8V7L8.5,4.6L5.9,5.7v2.7l0,0l-2.3,1
	v2.5l2.5,1.1l2.5-1L8.7,12l5,2.1l0.1,0l0.1,0l2.3-1l0.2-0.1v-2.7L16.3,10.2z M13.6,13.3L13.6,13.3L13.6,13.3l-4.4-1.8V9.8l4.4,1.8
	v0.1l0,0V13.3z M13.8,11.1l-1.4-0.6L14,9.9l1.4,0.6L13.8,11.1z M15.9,12.6l-1.7,0.7v-1.7l1.7-0.7V12.6z"/>
</svg>
