<?xml version="1.0" encoding="utf-8"?>
<!-- Generator: Adobe Illustrator 18.1.1, SVG Export Plug-In . SVG Version: 6.00 Build 0)  -->
<svg version="1.1" id="Creative_Commons_Attribution"
	 xmlns="http://www.w3.org/2000/svg" xmlns:xlink="http://www.w3.org/1999/xlink" x="0px" y="0px" viewBox="0 0 20 20"
	 enable-background="new 0 0 20 20" xml:space="preserve">
<path d="M12.6,7.6v3.9h-1.1v4.6h-3v-4.6H7.4V7.6C7.4,7.3,7.7,7,8,7H12C12.3,7,12.6,7.3,12.6,7.6z M10,6.5c0.7,0,1.3-0.6,1.3-1.3
	c0-0.7-0.6-1.3-1.3-1.3c-0.7,0-1.3,0.6-1.3,1.3C8.7,5.9,9.3,6.5,10,6.5z M19.6,10c0,2.7-0.9,4.9-2.7,6.7c-1.9,1.9-4.2,2.9-6.9,2.9
	c-2.6,0-4.9-0.9-6.8-2.8c-1.9-1.9-2.8-4.1-2.8-6.8c0-2.6,0.9-4.9,2.8-6.8C5.1,1.3,7.3,0.4,10,0.4c2.7,0,5,0.9,6.8,2.8
	C18.7,5,19.6,7.3,19.6,10z M17.9,10c0-2.2-0.8-4-2.3-5.6C14,2.9,12.2,2.1,10,2.1c-2.2,0-4,0.8-5.5,2.3C2.9,6,2.1,7.9,2.1,10
	c0,2.1,0.8,4,2.3,5.5s3.4,2.3,5.6,2.3c2.1,0,4-0.8,5.6-2.4C17.1,14,17.9,12.2,17.9,10z"/>
</svg>
