<?xml version="1.0" encoding="utf-8"?>
<!-- Generator: Adobe Illustrator 18.1.1, SVG Export Plug-In . SVG Version: 6.00 Build 0)  -->
<svg version="1.1" id="Creative_Commons" xmlns="http://www.w3.org/2000/svg" xmlns:xlink="http://www.w3.org/1999/xlink" x="0px"
	 y="0px" viewBox="0 0 20 20" enable-background="new 0 0 20 20" xml:space="preserve">
<path d="M8.8,10.8l1.1,0.6c-0.2,0.4-0.6,0.8-1,1.1c-0.4,0.3-0.9,0.4-1.4,0.4c-0.8,0-1.5-0.2-2-0.8C5,11.6,4.8,10.9,4.8,10
	c0-0.9,0.3-1.6,0.8-2.1C6,7.4,6.7,7.1,7.5,7.1c1.1,0,2,0.4,2.4,1.3L8.7,9.1C8.5,8.8,8.4,8.6,8.2,8.5S7.8,8.4,7.7,8.4
	c-0.8,0-1.2,0.5-1.2,1.6c0,0.5,0.1,0.9,0.3,1.2c0.2,0.3,0.5,0.4,0.9,0.4C8.2,11.6,8.6,11.4,8.8,10.8z M13,11.6
	c-0.4,0-0.7-0.1-0.9-0.4c-0.2-0.3-0.3-0.7-0.3-1.2c0-1.1,0.4-1.6,1.2-1.6c0.2,0,0.4,0.1,0.5,0.2c0.2,0.1,0.4,0.3,0.5,0.6l1.2-0.6
	c-0.5-0.9-1.3-1.3-2.4-1.3c-0.8,0-1.4,0.3-1.9,0.8c-0.5,0.5-0.8,1.2-0.8,2.1c0,0.9,0.2,1.6,0.7,2.1c0.5,0.5,1.2,0.8,2,0.8
	c0.5,0,1-0.1,1.4-0.4c0.4-0.3,0.8-0.6,1-1.1l-1.2-0.6C13.9,11.4,13.5,11.6,13,11.6z M19.6,10c0,2.7-0.9,4.9-2.7,6.7
	c-1.9,1.9-4.2,2.9-6.9,2.9c-2.6,0-4.9-0.9-6.8-2.8c-1.9-1.9-2.8-4.1-2.8-6.8c0-2.6,0.9-4.9,2.8-6.8C5.1,1.3,7.3,0.4,10,0.4
	c2.7,0,5,0.9,6.8,2.8C18.7,5,19.6,7.3,19.6,10z M17.9,10c0-2.2-0.8-4-2.3-5.6C14,2.9,12.2,2.1,10,2.1c-2.2,0-4,0.8-5.5,2.3
	C2.9,6,2.1,7.9,2.1,10c0,2.1,0.8,4,2.3,5.5c1.6,1.6,3.4,2.3,5.6,2.3c2.1,0,4-0.8,5.6-2.4C17.1,14,17.9,12.2,17.9,10z"/>
</svg>
