<?xml version="1.0" encoding="utf-8"?>
<!-- Generator: Adobe Illustrator 18.1.1, SVG Export Plug-In . SVG Version: 6.00 Build 0)  -->
<svg version="1.1" id="Creative_Commons_NonCommercial_EU"
	 xmlns="http://www.w3.org/2000/svg" xmlns:xlink="http://www.w3.org/1999/xlink" x="0px" y="0px" viewBox="0 0 20 20"
	 enable-background="new 0 0 20 20" xml:space="preserve">
<path d="M16.8,3.2C15,1.3,12.7,0.4,10,0.4c-2.7,0-4.9,0.9-6.8,2.8C1.3,5.1,0.4,7.4,0.4,10c0,2.6,0.9,4.9,2.8,6.8
	c1.9,1.9,4.1,2.8,6.8,2.8c2.6,0,4.9-1,6.9-2.9c1.8-1.8,2.7-4.1,2.7-6.7C19.6,7.3,18.7,5,16.8,3.2z M15.6,15.5
	c-1.6,1.6-3.5,2.4-5.6,2.4c-2.1,0-4-0.8-5.6-2.3C2.9,14,2.1,12.1,2.1,10c0-0.9,0.1-1.8,0.4-2.6l2.5,1.1H4.9v1.1h0.9
	c0,0.2,0,0.3,0,0.5v0.3H4.9v1.1h1c0.1,0.9,0.5,1.5,0.9,2.1c0.9,1.2,2.3,1.8,3.9,1.8c1,0,2-0.3,2.5-0.6l-0.4-1.8
	c-0.3,0.2-1.1,0.4-1.8,0.4c-0.8,0-1.6-0.2-2.1-0.8c-0.2-0.3-0.4-0.6-0.5-1.1H12l5,2.2C16.6,14.4,16.1,15,15.6,15.5z M9.3,10.5
	L9.3,10.5L9.3,10.5L9.3,10.5z M12.4,9.7h0.1V8.6H9.8L8.7,8.1C8.8,7.9,8.9,7.7,9,7.5c0.5-0.6,1.2-0.9,2-0.9c0.7,0,1.4,0.2,1.8,0.4
	l0.5-1.8c-0.6-0.3-1.4-0.5-2.4-0.5C9.3,4.7,8,5.3,7.1,6.4C6.9,6.6,6.7,6.9,6.6,7.1L3.4,5.8c0.3-0.5,0.7-0.9,1.1-1.3
	C6,2.9,7.8,2.1,10,2.1c2.2,0,4,0.8,5.6,2.3c1.5,1.5,2.3,3.4,2.3,5.6c0,0.7-0.1,1.4-0.2,2L12.4,9.7z"/>
</svg>
