<?xml version="1.0" encoding="utf-8"?>
<!-- Generator: Adobe Illustrator 18.1.0, SVG Export Plug-In . SVG Version: 6.00 Build 0)  -->
<!DOCTYPE svg PUBLIC "-//W3C//DTD SVG 1.1//EN" "http://www.w3.org/Graphics/SVG/1.1/DTD/svg11.dtd">
<svg version="1.1" id="Cross" xmlns="http://www.w3.org/2000/svg" xmlns:xlink="http://www.w3.org/1999/xlink" x="0px" y="0px"
	 viewBox="0 0 20 20" enable-background="new 0 0 20 20" xml:space="preserve">
<path d="M14.348,14.849c-0.469,0.469-1.229,0.469-1.697,0L10,11.819l-2.651,3.029c-0.469,0.469-1.229,0.469-1.697,0
	c-0.469-0.469-0.469-1.229,0-1.697l2.758-3.15L5.651,6.849c-0.469-0.469-0.469-1.228,0-1.697c0.469-0.469,1.228-0.469,1.697,0
	L10,8.183l2.651-3.031c0.469-0.469,1.228-0.469,1.697,0c0.469,0.469,0.469,1.229,0,1.697l-2.758,3.152l2.758,3.15
	C14.817,13.62,14.817,14.38,14.348,14.849z"/>
</svg>
