<?xml version="1.0" encoding="utf-8"?>
<!-- Generator: Adobe Illustrator 18.1.0, SVG Export Plug-In . SVG Version: 6.00 Build 0)  -->
<!DOCTYPE svg PUBLIC "-//W3C//DTD SVG 1.1//EN" "http://www.w3.org/Graphics/SVG/1.1/DTD/svg11.dtd">
<svg version="1.1" id="Cycle" xmlns="http://www.w3.org/2000/svg" xmlns:xlink="http://www.w3.org/1999/xlink" x="0px" y="0px"
	 viewBox="0 0 20 20" enable-background="new 0 0 20 20" xml:space="preserve">
<path d="M5.516,14.224c-2.262-2.432-2.222-6.244,0.128-8.611c0.962-0.969,2.164-1.547,3.414-1.736L8.989,1.8
	C7.234,2.013,5.537,2.796,4.192,4.151c-3.149,3.17-3.187,8.289-0.123,11.531l-1.741,1.752l5.51,0.301l-0.015-5.834L5.516,14.224z
	 M12.163,2.265l0.015,5.834l2.307-2.322c2.262,2.434,2.222,6.246-0.128,8.611c-0.961,0.969-2.164,1.547-3.414,1.736l0.069,2.076
	c1.755-0.213,3.452-0.996,4.798-2.35c3.148-3.172,3.186-8.291,0.122-11.531l1.741-1.754L12.163,2.265z"/>
</svg>
