<?xml version="1.0" encoding="utf-8"?>
<!-- Generator: Adobe Illustrator 18.1.0, SVG Export Plug-In . SVG Version: 6.00 Build 0)  -->
<!DOCTYPE svg PUBLIC "-//W3C//DTD SVG 1.1//EN" "http://www.w3.org/Graphics/SVG/1.1/DTD/svg11.dtd">
<svg version="1.1" id="Dial_pad" xmlns="http://www.w3.org/2000/svg" xmlns:xlink="http://www.w3.org/1999/xlink" x="0px" y="0px"
	 viewBox="0 0 20 20" enable-background="new 0 0 20 20" xml:space="preserve">
<path fill-rule="evenodd" clip-rule="evenodd" d="M6,0H4C3.448,0,3,0.448,3,1v2c0,0.552,0.448,1,1,1h2c0.552,0,1-0.448,1-1V1
	C7,0.448,6.552,0,6,0z M11,0H9C8.448,0,8,0.448,8,1v2c0,0.552,0.448,1,1,1h2c0.552,0,1-0.448,1-1V1C12,0.448,11.552,0,11,0z M16,0
	h-2c-0.552,0-1,0.448-1,1v2c0,0.552,0.448,1,1,1h2c0.552,0,1-0.448,1-1V1C17,0.448,16.552,0,16,0z M6,5H4C3.448,5,3,5.448,3,6v2
	c0,0.552,0.448,1,1,1h2c0.552,0,1-0.448,1-1V6C7,5.448,6.552,5,6,5z M11,5H9C8.448,5,8,5.448,8,6v2c0,0.552,0.448,1,1,1h2
	c0.552,0,1-0.448,1-1V6C12,5.448,11.552,5,11,5z M16,5h-2c-0.552,0-1,0.448-1,1v2c0,0.552,0.448,1,1,1h2c0.552,0,1-0.448,1-1V6
	C17,5.448,16.552,5,16,5z M6,10H4c-0.552,0-1,0.448-1,1v2c0,0.552,0.448,1,1,1h2c0.552,0,1-0.448,1-1v-2C7,10.448,6.552,10,6,10z
	 M11,10H9c-0.552,0-1,0.448-1,1v2c0,0.552,0.448,1,1,1h2c0.552,0,1-0.448,1-1v-2C12,10.448,11.552,10,11,10z M11,16H9
	c-0.552,0-1,0.448-1,1v2c0,0.552,0.448,1,1,1h2c0.552,0,1-0.448,1-1v-2C12,16.448,11.552,16,11,16z M16,10h-2c-0.552,0-1,0.448-1,1
	v2c0,0.552,0.448,1,1,1h2c0.552,0,1-0.448,1-1v-2C17,10.448,16.552,10,16,10z"/>
</svg>
