<?xml version="1.0" encoding="utf-8"?>
<!-- Generator: Adobe Illustrator 18.1.1, SVG Export Plug-In . SVG Version: 6.00 Build 0)  -->
<!DOCTYPE svg PUBLIC "-//W3C//DTD SVG 1.1//EN" "http://www.w3.org/Graphics/SVG/1.1/DTD/svg11.dtd">
<svg version="1.1" id="Download" xmlns="http://www.w3.org/2000/svg" xmlns:xlink="http://www.w3.org/1999/xlink" x="0px" y="0px"
	 viewBox="0 0 20 20" enable-background="new 0 0 20 20" xml:space="preserve">
<path d="M15,7h-3V1H8v6H5l5,5L15,7z M19.338,13.532c-0.21-0.224-1.611-1.723-2.011-2.114C17.062,11.159,16.683,11,16.285,11h-1.757
	l3.064,2.994h-3.544c-0.102,0-0.194,0.052-0.24,0.133L12.992,16H7.008l-0.816-1.873c-0.046-0.081-0.139-0.133-0.24-0.133H2.408
	L5.471,11H3.715c-0.397,0-0.776,0.159-1.042,0.418c-0.4,0.392-1.801,1.891-2.011,2.114c-0.489,0.521-0.758,0.936-0.63,1.449
	l0.561,3.074c0.128,0.514,0.691,0.936,1.252,0.936h16.312c0.561,0,1.124-0.422,1.252-0.936l0.561-3.074
	C20.096,14.468,19.828,14.053,19.338,13.532z"/>
</svg>
