<?xml version="1.0" encoding="utf-8"?>
<!-- Generator: Adobe Illustrator 18.1.0, SVG Export Plug-In . SVG Version: 6.00 Build 0)  -->
<!DOCTYPE svg PUBLIC "-//W3C//DTD SVG 1.1//EN" "http://www.w3.org/Graphics/SVG/1.1/DTD/svg11.dtd">
<svg version="1.1" id="Drink" xmlns="http://www.w3.org/2000/svg" xmlns:xlink="http://www.w3.org/1999/xlink" x="0px" y="0px"
	 viewBox="0 0 20 20" enable-background="new 0 0 20 20" xml:space="preserve">
<path d="M17.538,2.639C17.932,2.094,18,1,18,1H2c0,0,0.068,1.094,0.462,1.639L9,11v6H7c-2,0-2,2-2,2h10c0,0,0-2-2-2h-2v-6
	L17.538,2.639z M9.4,6c0-0.885,0.716-1.6,1.6-1.6s1.6,0.715,1.6,1.6c0,0.883-0.716,1.6-1.6,1.6S9.4,6.883,9.4,6z"/>
</svg>
