<?xml version="1.0" encoding="utf-8"?>
<!-- Generator: Adobe Illustrator 18.1.0, SVG Export Plug-In . SVG Version: 6.00 Build 0)  -->
<!DOCTYPE svg PUBLIC "-//W3C//DTD SVG 1.1//EN" "http://www.w3.org/Graphics/SVG/1.1/DTD/svg11.dtd">
<svg version="1.1" id="Drive" xmlns="http://www.w3.org/2000/svg" xmlns:xlink="http://www.w3.org/1999/xlink" x="0px" y="0px"
	 viewBox="0 0 20 20" enable-background="new 0 0 20 20" xml:space="preserve">
<path d="M19.059,10.898l-3.171-7.927C15.654,2.384,15.086,2,14.454,2H5.546C4.914,2,4.346,2.384,4.112,2.971l-3.171,7.927
	c-0.288,0.721-0.373,1.507-0.246,2.272l0.59,3.539C1.409,17.454,2.053,18,2.808,18h14.383c0.755,0,1.399-0.546,1.523-1.291
	l0.59-3.539C19.433,12.405,19.348,11.619,19.059,10.898z M16.959,15.245C16.887,15.681,16.51,16,16.068,16H3.932
	c-0.442,0-0.819-0.319-0.891-0.755l-0.365-2.193C2.583,12.501,3.008,12,3.567,12h12.867c0.558,0,0.983,0.501,0.891,1.052
	L16.959,15.245z"/>
</svg>
