<?xml version="1.0" encoding="utf-8"?>
<!-- Generator: Adobe Illustrator 18.1.0, SVG Export Plug-In . SVG Version: 6.00 Build 0)  -->
<!DOCTYPE svg PUBLIC "-//W3C//DTD SVG 1.1//EN" "http://www.w3.org/Graphics/SVG/1.1/DTD/svg11.dtd">
<svg version="1.1" id="Drop" xmlns="http://www.w3.org/2000/svg" xmlns:xlink="http://www.w3.org/1999/xlink" x="0px" y="0px"
	 viewBox="0 0 20 20" enable-background="new 0 0 20 20" xml:space="preserve">
<path d="M10.203,0.561c-0.027-0.215-0.38-0.215-0.406,0C8.914,7.668,4.399,9.133,4.399,14.073c0,3.053,2.564,5.527,5.601,5.527
	c3.036,0,5.6-2.475,5.6-5.527C15.6,9.133,11.086,7.668,10.203,0.561z M9.35,8.418C9.291,8.637,9.227,8.862,9.161,9.096
	c-0.401,1.424-0.856,3.039-0.856,4.906c0,1.012-0.598,1.371-1.156,1.371c-0.639,0-1.156-0.523-1.156-1.166
	c0-2.207,1.062-3.649,2-4.92c0.295-0.398,0.572-0.775,0.797-1.15C8.893,7.965,9.17,7.973,9.296,8.143
	C9.355,8.223,9.375,8.325,9.35,8.418z"/>
</svg>
