<?xml version="1.0" encoding="iso-8859-1"?>
<!-- Generator: Adobe Illustrator 18.1.0, SVG Export Plug-In . SVG Version: 6.00 Build 0)  -->
<!DOCTYPE svg PUBLIC "-//W3C//DTD SVG 1.1//EN" "http://www.w3.org/Graphics/SVG/1.1/DTD/svg11.dtd">
<svg version="1.1" id="Edit" xmlns="http://www.w3.org/2000/svg" xmlns:xlink="http://www.w3.org/1999/xlink" x="0px" y="0px"
	 viewBox="0 0 20 20" style="enable-background:new 0 0 20 20;" xml:space="preserve">
<path d="M17.561,2.439c-1.442-1.443-2.525-1.227-2.525-1.227L8.984,7.264L2.21,14.037L1.2,18.799l4.763-1.01l6.774-6.771
	l6.052-6.052C18.788,4.966,19.005,3.883,17.561,2.439z M5.68,17.217l-1.624,0.35c-0.156-0.293-0.345-0.586-0.69-0.932
	c-0.346-0.346-0.639-0.533-0.932-0.691l0.35-1.623l0.47-0.469c0,0,0.883,0.018,1.881,1.016c0.997,0.996,1.016,1.881,1.016,1.881
	L5.68,17.217z"/>
</svg>
