<?xml version="1.0" encoding="utf-8"?>
<!-- Generator: Adobe Illustrator 18.1.1, SVG Export Plug-In . SVG Version: 6.00 Build 0)  -->
<!DOCTYPE svg PUBLIC "-//W3C//DTD SVG 1.1//EN" "http://www.w3.org/Graphics/SVG/1.1/DTD/svg11.dtd">
<svg version="1.1" id="Emoji_flirt" xmlns="http://www.w3.org/2000/svg" xmlns:xlink="http://www.w3.org/1999/xlink" x="0px"
	 y="0px" viewBox="0 0 20 20" enable-background="new 0 0 20 20" xml:space="preserve">
<path d="M7.5,9.75C8.329,9.75,9,8.967,9,8S8.329,6.25,7.5,6.25S6,7.034,6,8S6.672,9.75,7.5,9.75z M10,0.4
	C4.698,0.4,0.4,4.698,0.4,10C0.4,15.302,4.698,19.6,10,19.6c5.301,0,9.6-4.298,9.6-9.601C19.6,4.698,15.301,0.4,10,0.4z M10,17.599
	c-4.197,0-7.6-3.402-7.6-7.6c0-4.197,3.402-7.6,7.6-7.6S17.6,5.802,17.6,10C17.6,14.197,14.197,17.599,10,17.599z M14.341,11.336
	c-0.363-0.187-0.815-0.043-1.008,0.32c-0.034,0.065-0.869,1.593-3.332,1.593c-2.451,0-3.291-1.513-3.333-1.592
	c-0.188-0.365-0.632-0.514-1.004-0.329c-0.37,0.185-0.521,0.636-0.335,1.007c0.05,0.099,1.248,2.414,4.672,2.414
	c3.425,0,4.621-2.316,4.67-2.415C14.855,11.967,14.707,11.524,14.341,11.336z M11.25,8.75h2.5c0.414,0,0.75-0.336,0.75-0.75
	c0-0.414-0.336-0.75-0.75-0.75h-2.5c-0.414,0-0.75,0.336-0.75,0.75C10.5,8.415,10.836,8.75,11.25,8.75z"/>
<g>
</g>
<g>
</g>
<g>
</g>
<g>
</g>
<g>
</g>
<g>
</g>
</svg>
