<?xml version="1.0" encoding="utf-8"?>
<!-- Generator: Adobe Illustrator 18.1.0, SVG Export Plug-In . SVG Version: 6.00 Build 0)  -->
<!DOCTYPE svg PUBLIC "-//W3C//DTD SVG 1.1//EN" "http://www.w3.org/Graphics/SVG/1.1/DTD/svg11.dtd">
<svg version="1.1" id="Eraser" xmlns="http://www.w3.org/2000/svg" xmlns:xlink="http://www.w3.org/1999/xlink" x="0px" y="0px"
	 viewBox="0 0 20 20" enable-background="new 0 0 20 20" xml:space="preserve">
<path d="M16.998,4.18l-3.154-2.425c-0.872-0.671-2.135-0.506-2.807,0.365l-8.4,10.897c-0.671,0.871-0.507,2.132,0.365,2.803
	l3.153,2.425c0.872,0.671,2.135,0.506,2.807-0.365l8.401-10.897C18.034,6.112,17.87,4.851,16.998,4.18z M8.548,16.467l-0.537,0.681
	c-0.152,0.197-0.385,0.31-0.639,0.31c-0.124,0-0.309-0.029-0.485-0.164l-3.153-2.425c-0.168-0.129-0.275-0.317-0.303-0.53
	c-0.028-0.213,0.028-0.422,0.157-0.589l0.537-0.681c0.152-0.197,0.385-0.311,0.64-0.311c0.124,0,0.309,0.029,0.485,0.164
	l3.154,2.425c0.168,0.129,0.275,0.317,0.303,0.53C8.733,16.09,8.677,16.299,8.548,16.467z"/>
</svg>
