<?xml version="1.0" encoding="utf-8"?>
<!-- Generator: Adobe Illustrator 18.1.0, SVG Export Plug-In . SVG Version: 6.00 Build 0)  -->
<!DOCTYPE svg PUBLIC "-//W3C//DTD SVG 1.1//EN" "http://www.w3.org/Graphics/SVG/1.1/DTD/svg11.dtd">
<svg version="1.1" id="Flashlight" xmlns="http://www.w3.org/2000/svg" xmlns:xlink="http://www.w3.org/1999/xlink" x="0px" y="0px"
	 viewBox="0 0 20 20" enable-background="new 0 0 20 20" xml:space="preserve">
<path d="M17.115,2.884c-1.676-1.676-3.779-2.288-4.449-1.618L9.97,3.962C9.561,4.372,9.204,5.741,9.368,7.126l-8.161,8.161
	c-0.484,0.484-0.092,1.66,0.876,2.629c0.968,0.969,2.146,1.359,2.629,0.877l8.161-8.162c1.386,0.164,2.755-0.193,3.164-0.601
	l2.696-2.697C19.403,6.663,18.791,4.559,17.115,2.884z M8.141,11.039C7.768,10.667,7.89,9.943,8.41,9.422
	c0.521-0.521,1.246-0.643,1.618-0.27c0.372,0.371,0.251,1.097-0.27,1.617C9.237,11.291,8.513,11.412,8.141,11.039z M14.891,5.108
	c-1.298-1.297-1.623-3.01-1.508-3.125c0.115-0.116,1.76,0.277,3.059,1.575c1.298,1.298,1.688,2.946,1.575,3.059
	C17.905,6.729,16.188,6.407,14.891,5.108z"/>
</svg>
