<?xml version="1.0" encoding="utf-8"?>
<!-- Generator: Adobe Illustrator 18.1.0, SVG Export Plug-In . SVG Version: 6.00 Build 0)  -->
<!DOCTYPE svg PUBLIC "-//W3C//DTD SVG 1.1//EN" "http://www.w3.org/Graphics/SVG/1.1/DTD/svg11.dtd">
<svg version="1.1" id="Flat_brush" xmlns="http://www.w3.org/2000/svg" xmlns:xlink="http://www.w3.org/1999/xlink" x="0px" y="0px"
	 viewBox="0 0 20 20" enable-background="new 0 0 20 20" xml:space="preserve">
<path d="M1.844,14.889c0.498,0.376,1.594-1.178,1.942-0.915c0.348,0.263-0.82,1.762-0.528,1.982c0.292,0.22,1.513-1.239,1.852-0.984
	c0.338,0.255-0.803,1.774-0.437,2.051C5.04,17.3,6.235,15.821,6.525,16.04c0.29,0.219-0.773,1.797-0.437,2.05
	c0.336,0.254,1.481-1.263,1.76-1.052c0.28,0.211-0.844,1.743-0.346,2.119c0.498,0.375,5.37-8.964,5.37-8.964L8.996,7.254
	C8.996,7.254,1.346,14.514,1.844,14.889z M13.023,0.831L9.661,5.987l4.121,3.109l4.396-4.246
	C17.651,3.347,14.738,1.007,13.023,0.831z"/>
</svg>
