<?xml version="1.0" encoding="utf-8"?>
<!-- Generator: Adobe Illustrator 18.1.1, SVG Export Plug-In . SVG Version: 6.00 Build 0)  -->
<!DOCTYPE svg PUBLIC "-//W3C//DTD SVG 1.1//EN" "http://www.w3.org/Graphics/SVG/1.1/DTD/svg11.dtd">
<svg version="1.1" id="Flow_line" xmlns="http://www.w3.org/2000/svg" xmlns:xlink="http://www.w3.org/1999/xlink" x="0px" y="0px"
	 viewBox="0 0 20 20" enable-background="new 0 0 20 20" xml:space="preserve">
<path d="M11,13.824V6.176c0.825-0.38,1.4-1.208,1.4-2.176c0-1.326-1.074-2.4-2.4-2.4S7.6,2.674,7.6,4c0,0.967,0.576,1.796,1.4,2.176
	v7.649C8.175,14.204,7.6,15.033,7.6,16c0,1.326,1.074,2.4,2.4,2.4s2.4-1.075,2.4-2.4C12.4,15.033,11.825,14.204,11,13.824z
	 M10,2.615c0.764,0,1.384,0.619,1.384,1.385c0,0.764-0.62,1.385-1.384,1.385C9.235,5.385,8.616,4.764,8.616,4
	C8.616,3.234,9.235,2.615,10,2.615z M10,17.385c-0.766,0-1.385-0.621-1.385-1.385c0-0.766,0.619-1.385,1.385-1.385
	c0.764,0,1.384,0.619,1.384,1.385C11.384,16.764,10.764,17.385,10,17.385z"/>
</svg>
