<?xml version="1.0" encoding="utf-8"?>
<!-- Generator: Adobe Illustrator 18.1.1, SVG Export Plug-In . SVG Version: 6.00 Build 0)  -->
<!DOCTYPE svg PUBLIC "-//W3C//DTD SVG 1.1//EN" "http://www.w3.org/Graphics/SVG/1.1/DTD/svg11.dtd">
<svg version="1.1" id="Flow_cascade" xmlns="http://www.w3.org/2000/svg" xmlns:xlink="http://www.w3.org/1999/xlink" x="0px"
	 y="0px" viewBox="0 0 20 20" enable-background="new 0 0 20 20" xml:space="preserve">
<path d="M14,14.6c-0.967,0-1.796,0.576-2.176,1.4H8.5C7.672,16,7,15.328,7,14.5v-3.85C7.456,10.868,7.961,11,8.5,11h3.324
	c0.38,0.824,1.208,1.4,2.176,1.4c1.326,0,2.4-1.075,2.4-2.4S15.326,7.6,14,7.6c-0.967,0-1.796,0.576-2.176,1.4H8.5
	C7.672,9,7,8.328,7,7.5V5.176C7.825,4.796,8.4,3.967,8.4,3c0-1.326-1.074-2.4-2.4-2.4S3.6,1.674,3.6,3
	c0,0.967,0.576,1.796,1.4,2.176V14.5C5,16.433,6.567,18,8.5,18h3.324c0.38,0.824,1.208,1.4,2.176,1.4c1.326,0,2.4-1.075,2.4-2.4
	S15.326,14.6,14,14.6z M14,8.615c0.764,0,1.384,0.619,1.384,1.385c0,0.764-0.62,1.385-1.384,1.385c-0.766,0-1.385-0.621-1.385-1.385
	C12.616,9.234,13.235,8.615,14,8.615z M6,1.615c0.764,0,1.384,0.619,1.384,1.385c0,0.764-0.62,1.385-1.384,1.385
	C5.235,4.385,4.616,3.764,4.616,3C4.616,2.234,5.235,1.615,6,1.615z M14,18.385c-0.766,0-1.385-0.621-1.385-1.385
	c0-0.766,0.619-1.385,1.385-1.385c0.764,0,1.384,0.619,1.384,1.385C15.384,17.764,14.764,18.385,14,18.385z"/>
</svg>
