<?xml version="1.0" encoding="utf-8"?>
<!-- Generator: Adobe Illustrator 18.1.0, SVG Export Plug-In . SVG Version: 6.00 Build 0)  -->
<!DOCTYPE svg PUBLIC "-//W3C//DTD SVG 1.1//EN" "http://www.w3.org/Graphics/SVG/1.1/DTD/svg11.dtd">
<svg version="1.1" id="Folder_images" xmlns="http://www.w3.org/2000/svg" xmlns:xlink="http://www.w3.org/1999/xlink" x="0px"
	 y="0px" viewBox="0 0 20 20" enable-background="new 0 0 20 20" xml:space="preserve">
<path d="M18.405,2.799C18.293,2.359,17.749,2,17.195,2H2.805c-0.555,0-1.099,0.359-1.21,0.799L1.394,4h17.211L18.405,2.799z
	 M19.412,5H0.587C0.245,5-0.022,5.294,0.01,5.635l0.923,11.669C0.971,17.698,1.303,18,1.699,18H18.3
	c0.397,0,0.728-0.302,0.766-0.696l0.923-11.669C20.022,5.294,19.754,5,19.412,5z M12.438,8.375c0.518,0,0.938,0.42,0.938,0.938
	c0,0.518-0.42,0.938-0.938,0.938S11.5,9.83,11.5,9.312C11.5,8.795,11.92,8.375,12.438,8.375z M5.5,14l2.486-5.714l2.827,4.576
	l2.424-1.204L14.5,14H5.5z"/>
</svg>
