<?xml version="1.0" encoding="utf-8"?>
<!-- Generator: Adobe Illustrator 18.1.0, SVG Export Plug-In . SVG Version: 6.00 Build 0)  -->
<!DOCTYPE svg PUBLIC "-//W3C//DTD SVG 1.1//EN" "http://www.w3.org/Graphics/SVG/1.1/DTD/svg11.dtd">
<svg version="1.1" id="Funnel" xmlns="http://www.w3.org/2000/svg" xmlns:xlink="http://www.w3.org/1999/xlink" x="0px" y="0px"
	 viewBox="0 0 20 20" enable-background="new 0 0 20 20" xml:space="preserve">
<path d="M10,1C5.092,1,2,2.512,2,4.001v2c0,0.918,6,6,6,6v6c-0.001,0.684,1,1,2,1s2.001-0.316,2-1v-6c0,0,6-5.082,6-6v-2
	C18,2.512,14.908,1,10,1z M10,6.123C6.409,6.122,3.862,4.79,3.862,4.292C3.86,3.797,6.41,2.461,10,2.463
	c3.59-0.002,6.14,1.334,6.138,1.828C16.138,4.79,13.591,6.122,10,6.123z"/>
</svg>
