<?xml version="1.0" encoding="utf-8"?>
<!-- Generator: Adobe Illustrator 18.1.0, SVG Export Plug-In . SVG Version: 6.00 Build 0)  -->
<!DOCTYPE svg PUBLIC "-//W3C//DTD SVG 1.1//EN" "http://www.w3.org/Graphics/SVG/1.1/DTD/svg11.dtd">
<svg version="1.1" id="Graduation_cap" xmlns="http://www.w3.org/2000/svg" xmlns:xlink="http://www.w3.org/1999/xlink" x="0px"
	 y="0px" viewBox="0 0 20 20" enable-background="new 0 0 20 20" xml:space="preserve">
<path d="M3.302,12.238c0.464,1.879,1.054,2.701,3.022,3.562C8.293,16.66,9.228,17.6,10,17.6c0.771,0,1.648-0.822,3.616-1.684
	c1.969-0.861,1.443-1.123,1.907-3.002L10,15.6L3.302,12.238z M19.511,7.336l-8.325-4.662c-0.652-0.365-1.72-0.365-2.372,0
	L0.488,7.336c-0.652,0.365-0.652,0.963,0,1.328l8.325,4.662c0.652,0.365,1.72,0.365,2.372,0l5.382-3.014l-5.836-1.367
	C10.506,9,10.259,9.031,10,9.031c-1.052,0-1.904-0.506-1.904-1.131c0-0.627,0.853-1.133,1.904-1.133c0.816,0,1.51,0.307,1.78,0.734
	l6.182,2.029l1.549-0.867C20.162,8.299,20.162,7.701,19.511,7.336z M16.967,16.17c-0.065,0.385,1.283,1.018,1.411-0.107
	c0.579-5.072-0.416-6.531-0.416-6.531l-1.395,0.781C16.567,10.312,17.75,11.438,16.967,16.17z"/>
</svg>
