<?xml version="1.0" encoding="utf-8"?>
<!-- Generator: Adobe Illustrator 18.1.0, SVG Export Plug-In . SVG Version: 6.00 Build 0)  -->
<!DOCTYPE svg PUBLIC "-//W3C//DTD SVG 1.1//EN" "http://www.w3.org/Graphics/SVG/1.1/DTD/svg11.dtd">
<svg version="1.1" id="Grid" xmlns="http://www.w3.org/2000/svg" xmlns:xlink="http://www.w3.org/1999/xlink" x="0px" y="0px"
	 viewBox="0 0 20 20" enable-background="new 0 0 20 20" xml:space="preserve">
<path fill-rule="evenodd" clip-rule="evenodd" d="M8,4H5C4.447,4,4,4.447,4,5v3c0,0.552,0.447,1,1,1h3c0.553,0,1-0.448,1-1V5
	C9,4.448,8.553,4,8,4z M15,4h-3c-0.553,0-1,0.447-1,1v3c0,0.552,0.447,1,1,1h3c0.553,0,1-0.448,1-1V5C16,4.448,15.553,4,15,4z M8,11
	H5c-0.553,0-1,0.447-1,1v3c0,0.552,0.447,1,1,1h3c0.553,0,1-0.448,1-1v-3C9,11.448,8.553,11,8,11z M15,11h-3c-0.553,0-1,0.447-1,1v3
	c0,0.552,0.447,1,1,1h3c0.553,0,1-0.448,1-1v-3C16,11.448,15.553,11,15,11z"/>
</svg>
