<?xml version="1.0" encoding="utf-8"?>
<!-- Generator: Adobe Illustrator 18.1.0, SVG Export Plug-In . SVG Version: 6.00 Build 0)  -->
<!DOCTYPE svg PUBLIC "-//W3C//DTD SVG 1.1//EN" "http://www.w3.org/Graphics/SVG/1.1/DTD/svg11.dtd">
<svg version="1.1" id="Hour_glass" xmlns="http://www.w3.org/2000/svg" xmlns:xlink="http://www.w3.org/1999/xlink" x="0px" y="0px"
	 viewBox="0 0 20 20" enable-background="new 0 0 20 20" xml:space="preserve">
<path d="M15.6,4.576c0-2.139,0-2.348,0-2.348C15.6,1.439,13.092,0,10,0C6.907,0,4.4,1.439,4.4,2.228c0,0,0,0.209,0,2.348
	C4.4,6.717,8.277,8.484,8.277,10c0,1.514-3.877,3.281-3.877,5.422c0,2.141,0,2.35,0,2.35C4.4,18.56,6.907,20,10,20
	c3.092,0,5.6-1.44,5.6-2.229c0,0,0-0.209,0-2.35c0-2.141-3.877-3.908-3.877-5.422C11.723,8.484,15.6,6.717,15.6,4.576z M5.941,2.328
	c0.696-0.439,2-1.082,4.114-1.082c2.113,0,4.006,1.082,4.006,1.082c0.142,0.086,0.698,0.383,0.317,0.609
	C13.54,3.434,11.9,3.957,10,3.957c-1.9,0-3.484-0.576-4.324-1.074C5.295,2.658,5.941,2.328,5.941,2.328z M10.501,10
	c0,1.193,0.996,1.961,2.051,2.986c0.771,0.748,1.826,1.773,1.826,2.435v1.328c-0.97-0.483-3.872-0.955-3.872-2.504
	c0-0.783-1.013-0.783-1.013,0c0,1.549-2.902,2.021-3.872,2.504v-1.328c0-0.662,1.056-1.688,1.826-2.435
	C8.502,11.961,9.498,11.193,9.498,10c0-1.193-0.996-1.961-2.051-2.986c-0.771-0.75-1.826-1.775-1.826-2.438L5.575,3.578
	C6.601,4.131,8.227,4.656,10,4.656c1.772,0,3.406-0.525,4.433-1.078l-0.055,0.998c0,0.662-1.056,1.688-1.826,2.438
	C11.498,8.039,10.501,8.807,10.501,10z"/>
</svg>
