<?xml version="1.0" encoding="utf-8"?>
<!-- Generator: Adobe Illustrator 18.1.0, SVG Export Plug-In . SVG Version: 6.00 Build 0)  -->
<!DOCTYPE svg PUBLIC "-//W3C//DTD SVG 1.1//EN" "http://www.w3.org/Graphics/SVG/1.1/DTD/svg11.dtd">
<svg version="1.1" id="Key" xmlns="http://www.w3.org/2000/svg" xmlns:xlink="http://www.w3.org/1999/xlink" x="0px" y="0px"
	 viewBox="0 0 20 20" enable-background="new 0 0 20 20" xml:space="preserve">
<path d="M17.691,4.725c-0.503-2.977-3.22-4.967-6.069-4.441C8.772,0.809,6.366,3.1,6.869,6.079c0.107,0.641,0.408,1.644,0.763,2.365
	l-5.175,7.723c-0.191,0.285-0.299,0.799-0.242,1.141l0.333,1.971c0.058,0.342,0.372,0.572,0.7,0.514l1.516-0.281
	c0.328-0.059,0.744-0.348,0.924-0.639l2.047-3.311l0.018-0.022l1.386-0.256l2.39-3.879c0.785,0.139,1.912,0.092,2.578-0.031
	C16.955,10.848,18.194,7.704,17.691,4.725z M15.166,6.252c-0.784,1.17-1.584,0.346-2.703-0.475
	c-1.119-0.818-2.135-1.322-1.352-2.492c0.784-1.17,2.326-1.455,3.447-0.635C15.678,3.469,15.949,5.082,15.166,6.252z"/>
</svg>
