<?xml version="1.0" encoding="utf-8"?>
<!-- Generator: Adobe Illustrator 18.1.0, SVG Export Plug-In . SVG Version: 6.00 Build 0)  -->
<!DOCTYPE svg PUBLIC "-//W3C//DTD SVG 1.1//EN" "http://www.w3.org/Graphics/SVG/1.1/DTD/svg11.dtd">
<svg version="1.1" id="Keyboard" xmlns="http://www.w3.org/2000/svg" xmlns:xlink="http://www.w3.org/1999/xlink" x="0px" y="0px"
	 viewBox="0 0 20 20" enable-background="new 0 0 20 20" xml:space="preserve">
<path d="M18.6,4h-17.2C0.629,4,0,4.629,0,5.4V14.6C0,15.369,0.629,16,1.399,16h17.2c0.77,0,1.4-0.631,1.4-1.4V5.4
	C20,4.629,19.369,4,18.6,4z M11,6h2v2h-2V6z M14,9v2h-2V9H14z M8,6h2v2H8V6z M11,9v2H9V9H11z M5,6h2v2H5V6z M8,9v2H6V9H8z M2,6h2v2
	H2V6z M5,9v2H3V9H5z M4,14H2v-2h2V14z M15,14H5v-2h10V14z M18,14h-2v-2h2V14z M15,11V9h2v2H15z M18,8h-4V6h4V8z"/>
</svg>
