<?xml version="1.0" encoding="iso-8859-1"?>
<!-- Generator: Adobe Illustrator 18.1.0, SVG Export Plug-In . SVG Version: 6.00 Build 0)  -->
<!DOCTYPE svg PUBLIC "-//W3C//DTD SVG 1.1//EN" "http://www.w3.org/Graphics/SVG/1.1/DTD/svg11.dtd">
<svg version="1.1" id="Laptop" xmlns="http://www.w3.org/2000/svg" xmlns:xlink="http://www.w3.org/1999/xlink" x="0px" y="0px"
	 viewBox="0 0 20 20" style="enable-background:new 0 0 20 20;" xml:space="preserve">
<path d="M19.754,15.631C19.507,15.26,18,13,18,13V4c0-1.102-0.9-2-2-2H4C2.899,2,2,2.898,2,4v9c0,0-1.507,2.26-1.754,2.631
	C0,16,0,16.213,0,16.5V17c0,0.5,0.5,1,0.999,1h18.002C19.5,18,20,17.5,20,17v-0.5C20,16.213,20,16,19.754,15.631z M7,16l0.6-1h4.8
	l0.6,1H7z M16,12H4V4h12V12z"/>
</svg>
