<?xml version="1.0" encoding="utf-8"?>
<!-- Generator: Adobe Illustrator 18.1.0, SVG Export Plug-In . SVG Version: 6.00 Build 0)  -->
<!DOCTYPE svg PUBLIC "-//W3C//DTD SVG 1.1//EN" "http://www.w3.org/Graphics/SVG/1.1/DTD/svg11.dtd">
<svg version="1.1" id="Lock_open" xmlns="http://www.w3.org/2000/svg" xmlns:xlink="http://www.w3.org/1999/xlink" x="0px" y="0px"
	 viewBox="0 0 20 20" enable-background="new 0 0 20 20" xml:space="preserve">
<path d="M15.8,8H14V5.6C14,2.703,12.665,1,10,1C7.334,1,6,2.703,6,5.6V6h2V5.199C8,3.754,8.797,3,10,3c1.203,0,2,0.754,2,2.199V8H4
	C3.447,8,3,8.646,3,9.199V17c0,0.549,0.428,1.139,0.951,1.307l1.197,0.387C5.672,18.861,6.55,19,7.1,19H12.9
	c0.549,0,1.428-0.139,1.951-0.307l1.196-0.387C16.571,18.139,17,17.549,17,17V9.199C17,8.646,16.352,8,15.8,8z"/>
</svg>
