<?xml version="1.0" encoding="utf-8"?>
<!-- Generator: Adobe Illustrator 18.1.0, SVG Export Plug-In . SVG Version: 6.00 Build 0)  -->
<!DOCTYPE svg PUBLIC "-//W3C//DTD SVG 1.1//EN" "http://www.w3.org/Graphics/SVG/1.1/DTD/svg11.dtd">
<svg version="1.1" id="Medal" xmlns="http://www.w3.org/2000/svg" xmlns:xlink="http://www.w3.org/1999/xlink" x="0px" y="0px"
	 viewBox="0 0 20 20" enable-background="new 0 0 20 20" xml:space="preserve">
<path d="M10,10c0.528,0,1.026,0.104,1.504,0.256L5.427,1.141C5.368,1.053,5.27,1,5.164,1H1.608C1.491,1,1.42,1.131,1.486,1.229
	l6.231,9.347C8.404,10.22,9.173,10,10,10z M18.392,1h-3.556c-0.106,0-0.204,0.053-0.263,0.141L10.75,6.875l2,3l5.764-8.646
	C18.579,1.131,18.509,1,18.392,1z M10,11c-2.209,0-4,1.791-4,4c0,2.209,1.791,4,4,4s4-1.791,4-4C14,12.791,12.209,11,10,11z
	 M12.112,15.117c0.062,0.064,0.052,0.158-0.022,0.208c-0.074,0.05-0.095,0.153-0.049,0.229c0.047,0.076,0.018,0.165-0.065,0.199
	s-0.125,0.13-0.095,0.214s-0.017,0.165-0.104,0.181s-0.149,0.101-0.137,0.189s-0.051,0.158-0.14,0.155
	c-0.089-0.003-0.167,0.068-0.174,0.156s-0.083,0.144-0.169,0.123s-0.178,0.031-0.203,0.117s-0.111,0.124-0.191,0.085
	c-0.08-0.039-0.18-0.006-0.222,0.072s-0.134,0.098-0.205,0.043s-0.175-0.044-0.232,0.024s-0.151,0.068-0.209,0
	s-0.162-0.079-0.232-0.024s-0.162,0.035-0.205-0.043s-0.142-0.111-0.222-0.072c-0.08,0.039-0.166,0-0.191-0.085
	s-0.116-0.138-0.203-0.117s-0.163-0.034-0.169-0.123S8.589,16.489,8.5,16.491c-0.089,0.003-0.152-0.067-0.14-0.155
	s-0.05-0.173-0.137-0.189s-0.135-0.097-0.104-0.181s-0.013-0.18-0.095-0.214s-0.111-0.123-0.065-0.199
	c0.047-0.076,0.025-0.179-0.049-0.229c-0.074-0.05-0.083-0.144-0.022-0.208c0.062-0.064,0.062-0.169,0-0.234
	s-0.052-0.158,0.022-0.208s0.095-0.153,0.049-0.229c-0.047-0.076-0.018-0.165,0.065-0.199s0.125-0.13,0.095-0.214
	s0.017-0.165,0.104-0.181s0.149-0.101,0.137-0.189s0.051-0.158,0.14-0.155c0.089,0.003,0.167-0.068,0.174-0.156
	s0.083-0.144,0.169-0.123s0.178-0.031,0.203-0.117s0.111-0.124,0.191-0.085c0.08,0.039,0.18,0.006,0.222-0.072
	s0.134-0.098,0.205-0.043s0.175,0.044,0.232-0.024s0.151-0.068,0.209,0s0.162,0.079,0.232,0.024s0.162-0.035,0.205,0.043
	s0.142,0.111,0.222,0.072c0.08-0.039,0.166,0,0.191,0.085s0.116,0.138,0.203,0.117s0.163,0.034,0.169,0.123s0.085,0.159,0.174,0.156
	c0.089-0.003,0.152,0.067,0.14,0.155s0.05,0.173,0.137,0.189s0.135,0.097,0.104,0.181s0.013,0.18,0.095,0.214
	s0.111,0.123,0.065,0.199c-0.047,0.076-0.025,0.179,0.049,0.229s0.083,0.144,0.022,0.208S12.05,15.053,12.112,15.117z"/>
</svg>
