<?xml version="1.0" encoding="utf-8"?>
<!-- Generator: Adobe Illustrator 18.1.0, SVG Export Plug-In . SVG Version: 6.00 Build 0)  -->
<!DOCTYPE svg PUBLIC "-//W3C//DTD SVG 1.1//EN" "http://www.w3.org/Graphics/SVG/1.1/DTD/svg11.dtd">
<svg version="1.1" id="Music" xmlns="http://www.w3.org/2000/svg" xmlns:xlink="http://www.w3.org/1999/xlink" x="0px" y="0px"
	 viewBox="0 0 20 20" enable-background="new 0 0 20 20" xml:space="preserve">
<path fill-rule="evenodd" clip-rule="evenodd" d="M16,1H4C3.447,1,3,1.447,3,2v16c0,0.552,0.447,1,1,1h12c0.553,0,1-0.448,1-1V2
	C17,1.448,16.553,1,16,1z M12.795,11.519c-0.185,0.382-0.373,0.402-0.291,0C12.715,10.48,12.572,8.248,11,8v4.75
	c0,0.973-0.448,1.82-1.639,2.203c-1.156,0.369-2.449-0.016-2.752-0.846c-0.303-0.83,0.377-1.84,1.518-2.256
	C8.764,11.619,9.502,11.559,10,11.75V5h1C11,7.355,15.065,6.839,12.795,11.519z"/>
</svg>
