<?xml version="1.0" encoding="iso-8859-1"?>
<!-- Generator: Adobe Illustrator 18.1.0, SVG Export Plug-In . SVG Version: 6.00 Build 0)  -->
<!DOCTYPE svg PUBLIC "-//W3C//DTD SVG 1.1//EN" "http://www.w3.org/Graphics/SVG/1.1/DTD/svg11.dtd">
<svg version="1.1" id="Notification" xmlns="http://www.w3.org/2000/svg" xmlns:xlink="http://www.w3.org/1999/xlink" x="0px"
	 y="0px" viewBox="0 0 20 20" style="enable-background:new 0 0 20 20;" xml:space="preserve">
<path d="M15,8.38V17H3V5h8.62c-0.073-0.322-0.12-0.655-0.12-1s0.047-0.678,0.12-1H3C1.898,3,1,3.9,1,5v12c0,1.1,0.9,2,2,2h12
	c1.1,0,2-0.9,2-2V8.38c-0.322,0.073-0.655,0.12-1,0.12S15.322,8.453,15,8.38z M16,1c-1.657,0-3,1.343-3,3s1.343,3,3,3s3-1.343,3-3
	S17.657,1,16,1z"/>
</svg>
