<?xml version="1.0" encoding="utf-8"?>
<!-- Generator: Adobe Illustrator 18.1.1, SVG Export Plug-In . SVG Version: 6.00 Build 0)  -->
<svg version="1.1" id="Notifications_off" xmlns="http://www.w3.org/2000/svg" xmlns:xlink="http://www.w3.org/1999/xlink" x="0px"
	 y="0px" viewBox="0 0 20 20" enable-background="new 0 0 20 20" xml:space="preserve">
<path d="M18.8,17.4c0.2,0.2,0.2,0.5,0,0.7l-0.7,0.7c-0.2,0.2-0.5,0.2-0.7,0L1.2,2.6C1,2.4,1,2.1,1.2,1.9l0.7-0.7
	C2.1,1,2.4,1,2.6,1.2L18.8,17.4z M16,7c1.7,0,3-1.3,3-3c0-1.7-1.3-3-3-3s-3,1.3-3,3C13,5.7,14.3,7,16,7z M15,8.4v3.8l2,2V8.4
	c-0.3,0.1-0.7,0.1-1,0.1S15.3,8.5,15,8.4z M11.6,5c-0.1-0.3-0.1-0.7-0.1-1c0-0.3,0-0.7,0.1-1H5.8l2,2H11.6z M5,15V7.8l-2-2V15
	c0,1.1,0.9,2,2,2h9.2l-2-2H5z"/>
</svg>
