<?xml version="1.0" encoding="utf-8"?>
<!-- Generator: Adobe Illustrator 18.1.1, SVG Export Plug-In . SVG Version: 6.00 Build 0)  -->
<!DOCTYPE svg PUBLIC "-//W3C//DTD SVG 1.1//EN" "http://www.w3.org/Graphics/SVG/1.1/DTD/svg11.dtd">
<svg version="1.1" id="Open_book" xmlns="http://www.w3.org/2000/svg" xmlns:xlink="http://www.w3.org/1999/xlink" x="0px" y="0px"
	 viewBox="0 0 20 20" enable-background="new 0 0 20 20" xml:space="preserve">
<path d="M10.595,5.196l0.446,1.371c0.369-0.316,0.835-0.599,1.441-0.795c0.59-0.192,1.111-0.3,1.582-0.362l-0.43-1.323
	c-0.476,0.069-1.001,0.18-1.58,0.368C11.476,4.643,10.999,4.905,10.595,5.196z M11.522,8.051l0.446,1.371
	c0.369-0.316,0.835-0.599,1.441-0.795c0.59-0.192,1.111-0.3,1.582-0.362l-0.43-1.323c-0.476,0.069-1.001,0.18-1.58,0.368
	C12.403,7.497,11.927,7.759,11.522,8.051z M12.45,10.905l0.446,1.371c0.369-0.316,0.835-0.599,1.441-0.795
	c0.59-0.192,1.111-0.3,1.582-0.362l-0.43-1.323c-0.476,0.069-1.001,0.18-1.58,0.368C13.33,10.351,12.854,10.614,12.45,10.905z
	 M5.388,13.077l0.43,1.323c0.417-0.226,0.902-0.445,1.492-0.636c0.606-0.197,1.149-0.242,1.633-0.203l-0.446-1.371
	c-0.499,0.002-1.038,0.07-1.615,0.257C6.303,12.635,5.813,12.853,5.388,13.077z M3.533,7.368l0.43,1.323
	C4.38,8.465,4.865,8.247,5.455,8.055c0.606-0.197,1.149-0.242,1.633-0.203L6.643,6.48C6.144,6.483,5.605,6.55,5.027,6.738
	C4.448,6.926,3.958,7.144,3.533,7.368z M4.46,10.223l0.43,1.323c0.417-0.226,0.902-0.445,1.492-0.636
	c0.606-0.197,1.149-0.242,1.633-0.203L7.57,9.335c-0.499,0.002-1.038,0.07-1.615,0.257C5.376,9.78,4.885,9.999,4.46,10.223z
	 M11.064,1.41C9.341,1.97,8.441,3.162,8.011,3.969c-0.822-0.4-2.25-0.835-3.973-0.275c-2.523,0.82-3.969,2.627-3.969,2.627
	l4.095,12.587c0.126,0.387,0.646,0.477,0.878,0.143c0.499-0.719,1.46-1.658,3.257-2.242c1.718-0.558,2.969,0.054,3.655,0.578
	c0.272,0.208,0.662,0.06,0.762-0.268c0.252-0.827,0.907-2.04,2.61-2.593c1.799-0.585,3.129-0.389,3.956-0.1
	c0.385,0.134,0.75-0.242,0.625-0.629L15.819,1.203C15.819,1.203,13.587,0.591,11.064,1.41z M10.951,15.256
	c-0.819-0.244-1.901-0.358-3.141,0.044c-1.251,0.406-2.127,0.949-2.699,1.404L1.866,6.722C2.224,6.364,3.053,5.68,4.528,5.201
	c1.389-0.451,2.528-0.065,3.279,0.378L10.951,15.256z M17.845,12.567c-0.731-0.032-1.759,0.044-3.01,0.451
	c-1.24,0.403-2.048,1.132-2.567,1.81L9.124,5.151c0.346-0.8,1.04-1.782,2.43-2.233c1.474-0.479,2.547-0.413,3.047-0.334
	L17.845,12.567z"/>
</svg>
