<?xml version="1.0" encoding="utf-8"?>
<!-- Generator: Adobe Illustrator 18.1.0, SVG Export Plug-In . SVG Version: 6.00 Build 0)  -->
<!DOCTYPE svg PUBLIC "-//W3C//DTD SVG 1.1//EN" "http://www.w3.org/Graphics/SVG/1.1/DTD/svg11.dtd">
<svg version="1.1" id="Palette" xmlns="http://www.w3.org/2000/svg" xmlns:xlink="http://www.w3.org/1999/xlink" x="0px" y="0px"
	 viewBox="0 0 20 20" enable-background="new 0 0 20 20" xml:space="preserve">
<path d="M15.74,2.608C12.212,1.422,8.674,1.647,5.02,3.882c-2.853,1.743-4.718,6.076-4.103,9.182
	c0.728,3.671,4.351,5.995,9.243,4.651c5.275-1.449,6.549-4.546,6.379-5.334c-0.17-0.788-2.665-1.652-1.718-3.498
	c1.188-2.313,3.129-1.149,3.982-1.622C19.658,6.789,19.342,3.819,15.74,2.608z M12.094,13.314c-0.798,0.218-1.623-0.256-1.843-1.059
	c-0.221-0.805,0.248-1.631,1.046-1.849c0.798-0.218,1.622,0.254,1.843,1.059C13.36,12.268,12.892,13.096,12.094,13.314z"/>
</svg>
