<?xml version="1.0" encoding="utf-8"?>
<!-- Generator: Adobe Illustrator 18.1.0, SVG Export Plug-In . SVG Version: 6.00 Build 0)  -->
<!DOCTYPE svg PUBLIC "-//W3C//DTD SVG 1.1//EN" "http://www.w3.org/Graphics/SVG/1.1/DTD/svg11.dtd">
<svg version="1.1" id="Print" xmlns="http://www.w3.org/2000/svg" xmlns:xlink="http://www.w3.org/1999/xlink" x="0px" y="0px"
	 viewBox="0 0 20 20" enable-background="new 0 0 20 20" xml:space="preserve">
<path d="M1.501,6h17c0.57,0,0.477-0.608,0.193-0.707C18.409,5.194,15.251,4,14.7,4H14V1H6v3H5.301c-0.55,0-3.709,1.194-3.993,1.293
	C1.024,5.392,0.931,6,1.501,6z M19,7H1C0.45,7,0,7.45,0,8v5c0,0.551,0.45,1,1,1h2.283l-0.882,5h15.199l-0.883-5H19
	c0.551,0,1-0.449,1-1V8C20,7.45,19.551,7,19,7z M4.603,17l1.198-7.003H14.2L15.399,17H4.603z"/>
</svg>
