<?xml version="1.0" encoding="utf-8"?>
<!-- Generator: Adobe Illustrator 18.1.0, SVG Export Plug-In . SVG Version: 6.00 Build 0)  -->
<!DOCTYPE svg PUBLIC "-//W3C//DTD SVG 1.1//EN" "http://www.w3.org/Graphics/SVG/1.1/DTD/svg11.dtd">
<svg version="1.1" id="Publish" xmlns="http://www.w3.org/2000/svg" xmlns:xlink="http://www.w3.org/1999/xlink" x="0px" y="0px"
	 viewBox="0 0 20 20" enable-background="new 0 0 20 20" xml:space="preserve">
<path d="M9.967,8.193L5,13h3v6h4v-6h3L9.967,8.193z M18,1H2C0.9,1,0,1.9,0,3v12c0,1.1,0.9,2,2,2h4v-2H2V6h16v9h-4v2h4
	c1.1,0,2-0.9,2-2V3C20,1.9,19.1,1,18,1z M2.5,4.25c-0.414,0-0.75-0.336-0.75-0.75c0-0.414,0.336-0.75,0.75-0.75
	c0.414,0,0.75,0.336,0.75,0.75C3.25,3.914,2.914,4.25,2.5,4.25z M4.5,4.25c-0.414,0-0.75-0.336-0.75-0.75
	c0-0.414,0.336-0.75,0.75-0.75c0.414,0,0.75,0.336,0.75,0.75C5.25,3.914,4.914,4.25,4.5,4.25z M18,4H6V3h12.019L18,4z"/>
</svg>
