<?xml version="1.0" encoding="utf-8"?>
<!-- Generator: Adobe Illustrator 18.1.0, SVG Export Plug-In . SVG Version: 6.00 Build 0)  -->
<!DOCTYPE svg PUBLIC "-//W3C//DTD SVG 1.1//EN" "http://www.w3.org/Graphics/SVG/1.1/DTD/svg11.dtd">
<svg version="1.1" id="Radio" xmlns="http://www.w3.org/2000/svg" xmlns:xlink="http://www.w3.org/1999/xlink" x="0px" y="0px"
	 viewBox="0 0 20 20" enable-background="new 0 0 20 20" xml:space="preserve">
<path d="M17,8H5.021l8.974-5.265L13,1L1.736,7.571C1.28,7.837,1,8.324,1,8.852V17c0,1.105,0.895,2,2,2h14c1.105,0,2-0.895,2-2v-7
	C19,8.895,18.105,8,17,8z M15.5,17c-0.828,0-1.5-0.672-1.5-1.5c0-0.828,0.672-1.5,1.5-1.5s1.5,0.672,1.5,1.5
	C17,16.328,16.328,17,15.5,17z M17,12H3v-2h14V12z"/>
</svg>
