<?xml version="1.0" encoding="utf-8"?>
<!-- Generator: Adobe Illustrator 18.1.1, SVG Export Plug-In . SVG Version: 6.00 Build 0)  -->
<!DOCTYPE svg PUBLIC "-//W3C//DTD SVG 1.1//EN" "http://www.w3.org/Graphics/SVG/1.1/DTD/svg11.dtd">
<svg version="1.1" id="Remove_user" xmlns="http://www.w3.org/2000/svg" xmlns:xlink="http://www.w3.org/1999/xlink" x="0px"
	 y="0px" viewBox="0 0 20 20" enable-background="new 0 0 20 20" xml:space="preserve">
<path d="M15.989,19.129c0-2.246-2.187-3.389-4.317-4.307c-2.123-0.914-2.801-1.684-2.801-3.334c0-0.989,0.648-0.667,0.932-2.481
	c0.12-0.752,0.692-0.012,0.802-1.729c0-0.684-0.313-0.854-0.313-0.854s0.159-1.013,0.221-1.793c0.064-0.817-0.398-2.56-2.301-3.095
	C7.88,1.195,7.655,0.654,8.679,0.112c-2.24-0.104-2.761,1.068-3.954,1.93c-1.015,0.756-1.289,1.953-1.24,2.59
	c0.065,0.78,0.223,1.793,0.223,1.793s-0.314,0.17-0.314,0.854c0.11,1.718,0.684,0.977,0.803,1.729
	C4.481,10.822,5.13,10.5,5.13,11.489c0,1.65-0.212,2.21-2.336,3.124C0.663,15.53,0,17,0.011,19.129C0.014,19.766,0,20,0,20h16
	C16,20,15.989,19.766,15.989,19.129z M16,10.039l-2.299-2.398L12.64,8.702L15.039,11l-2.398,2.298l1.061,1.061L16,11.961
	l2.298,2.398l1.061-1.061L16.961,11l2.397-2.298l-1.061-1.061L16,10.039z"/>
</svg>
