<?xml version="1.0" encoding="utf-8"?>
<!-- Generator: Adobe Illustrator 18.1.0, SVG Export Plug-In . SVG Version: 6.00 Build 0)  -->
<!DOCTYPE svg PUBLIC "-//W3C//DTD SVG 1.1//EN" "http://www.w3.org/Graphics/SVG/1.1/DTD/svg11.dtd">
<svg version="1.1" id="Rocket" xmlns="http://www.w3.org/2000/svg" xmlns:xlink="http://www.w3.org/1999/xlink" x="0px" y="0px"
	 viewBox="0 0 20 20" enable-background="new 0 0 20 20" xml:space="preserve">
<path d="M11.933,13.069c0,0,7.059-5.094,6.276-10.924c-0.017-0.127-0.059-0.213-0.112-0.268c-0.054-0.055-0.137-0.098-0.263-0.115
	C12.137,0.961,7.16,8.184,7.16,8.184C2.842,7.667,3.156,8.528,1.186,13.26c-0.377,0.902,0.234,1.213,0.904,0.959
	c0.67-0.252,2.148-0.811,2.148-0.811l2.59,2.648c0,0-0.546,1.514-0.793,2.199c-0.248,0.686,0.055,1.311,0.938,0.926
	C11.597,17.165,12.439,17.487,11.933,13.069z M12.942,7.153c-0.598-0.613-0.598-1.604,0-2.217c0.598-0.611,1.567-0.611,2.166,0
	c0.598,0.611,0.598,1.603,0,2.217C14.509,7.764,13.539,7.764,12.942,7.153z"/>
</svg>
