<?xml version="1.0" encoding="utf-8"?>
<!-- Generator: Adobe Illustrator 18.1.1, SVG Export Plug-In . SVG Version: 6.00 Build 0)  -->
<!DOCTYPE svg PUBLIC "-//W3C//DTD SVG 1.1//EN" "http://www.w3.org/Graphics/SVG/1.1/DTD/svg11.dtd">
<svg version="1.1" id="Sound_mute" xmlns="http://www.w3.org/2000/svg" xmlns:xlink="http://www.w3.org/1999/xlink" x="0px" y="0px"
	 viewBox="0 0 20 20" enable-background="new 0 0 20 20" xml:space="preserve">
<path d="M14.201,9.194c1.389,1.883,1.818,3.517,1.559,3.777c-0.26,0.258-1.893-0.17-3.778-1.559l-5.526,5.527
	c4.186,1.838,9.627-2.018,10.605-2.996c0.925-0.922,0.097-3.309-1.856-5.754L14.201,9.194z M8.667,7.941
	c-1.099-1.658-1.431-3.023-1.194-3.26c0.233-0.234,1.6,0.096,3.257,1.197l1.023-1.025C9.489,3.179,7.358,2.519,6.496,3.384
	C5.568,4.31,2.048,9.261,3.265,13.341L8.667,7.941z M18.521,1.478c-0.39-0.391-1.023-0.391-1.414,0L1.478,17.108
	c-0.391,0.391-0.391,1.024,0,1.414c0.391,0.391,1.023,0.391,1.414,0L18.521,2.892C18.912,2.501,18.912,1.868,18.521,1.478z"/>
</svg>
