<?xml version="1.0" encoding="utf-8"?>
<!-- Generator: Adobe Illustrator 18.1.0, SVG Export Plug-In . SVG Version: 6.00 Build 0)  -->
<!DOCTYPE svg PUBLIC "-//W3C//DTD SVG 1.1//EN" "http://www.w3.org/Graphics/SVG/1.1/DTD/svg11.dtd">
<svg version="1.1" id="Sound_mix" xmlns="http://www.w3.org/2000/svg" xmlns:xlink="http://www.w3.org/1999/xlink" x="0px" y="0px"
	 viewBox="0 0 20 20" enable-background="new 0 0 20 20" xml:space="preserve">
<path d="M5,1.6C5,1.047,4.552,1,4,1C3.447,1,3,1.047,3,1.6V10h2V1.6z M3,18.4C3,18.951,3.447,19,4,19c0.552,0,1-0.049,1-0.6V15H3
	V18.4z M6.399,11H1.599C1.046,11,1,11.448,1,12v1c0,0.553,0.046,1,0.599,1h4.801C6.95,14,7,13.553,7,13v-1
	C7,11.448,6.95,11,6.399,11z M18.399,12h-4.801C13.046,12,13,12.448,13,13v1c0,0.553,0.046,1,0.599,1h4.801
	C18.95,15,19,14.553,19,14v-1C19,12.448,18.95,12,18.399,12z M13,7c0-0.552-0.05-1-0.601-1H7.599C7.046,6,7,6.448,7,7v1
	c0,0.553,0.046,1,0.599,1h4.801C12.95,9,13,8.553,13,8V7z M11,1.6C11,1.047,10.552,1,10,1C9.447,1,9,1.047,9,1.6V5h2V1.6z M9,18.4
	c0,0.551,0.447,0.6,1,0.6c0.552,0,1-0.049,1-0.6V10H9V18.4z M17,1.6C17,1.047,16.552,1,16,1c-0.553,0-1,0.047-1,0.6V11h2V1.6z
	 M15,18.4c0,0.551,0.447,0.6,1,0.6c0.552,0,1-0.049,1-0.6V16h-2V18.4z"/>
</svg>
