<?xml version="1.0" encoding="utf-8"?>
<!-- Generator: Adobe Illustrator 18.1.0, SVG Export Plug-In . SVG Version: 6.00 Build 0)  -->
<!DOCTYPE svg PUBLIC "-//W3C//DTD SVG 1.1//EN" "http://www.w3.org/Graphics/SVG/1.1/DTD/svg11.dtd">
<svg version="1.1" id="Brush" xmlns="http://www.w3.org/2000/svg" xmlns:xlink="http://www.w3.org/1999/xlink" x="0px" y="0px"
	 viewBox="0 0 20 20" enable-background="new 0 0 20 20" xml:space="preserve">
<path d="M18,4h-1v15h1c1.1,0,2-0.9,2-2V6C20,4.9,19.1,4,18,4z M0,6l0,11c0,1.1,0.899,2,2,2h1V4H2C0.899,4,0,4.9,0,6z M13.5,1.906
	C12.819,1.59,11.611,1,9.981,1C8.348,1,7.181,1.59,6.5,1.906V4H4v15h12V4h-2.5V1.906z M12,4H8V2.664
	c0.534-0.23,1.078-0.465,1.981-0.465c0.902,0,1.486,0.234,2.019,0.465V4z"/>
</svg>
