<?xml version="1.0" encoding="iso-8859-1"?>
<!-- Generator: Adobe Illustrator 18.1.0, SVG Export Plug-In . SVG Version: 6.00 Build 0)  -->
<!DOCTYPE svg PUBLIC "-//W3C//DTD SVG 1.1//EN" "http://www.w3.org/Graphics/SVG/1.1/DTD/svg11.dtd">
<svg version="1.1" id="Tablet" xmlns="http://www.w3.org/2000/svg" xmlns:xlink="http://www.w3.org/1999/xlink" x="0px" y="0px"
	 viewBox="0 0 20 20" style="enable-background:new 0 0 20 20;" xml:space="preserve">
<path d="M16,0H4C2.9,0,2,0.899,2,2v16c0,1.1,0.9,2,2,2h12c1.101,0,2-0.9,2-2V2C18,0.899,17.101,0,16,0z M10,19
	c-0.69,0-1.25-0.447-1.25-1s0.56-1,1.25-1c0.689,0,1.25,0.447,1.25,1S10.689,19,10,19z M16,16H4V2h12V16z"/>
</svg>
