<?xml version="1.0" encoding="utf-8"?>
<!-- Generator: Adobe Illustrator 18.1.1, SVG Export Plug-In . SVG Version: 6.00 Build 0)  -->
<!DOCTYPE svg PUBLIC "-//W3C//DTD SVG 1.1//EN" "http://www.w3.org/Graphics/SVG/1.1/DTD/svg11.dtd">
<svg version="1.1" id="Tablet_Mobile_combo" xmlns="http://www.w3.org/2000/svg" xmlns:xlink="http://www.w3.org/1999/xlink"
	 x="0px" y="0px" viewBox="0 0 20 20" enable-background="new 0 0 20 20" xml:space="preserve">
<path d="M17.00354,5H11.99646C10.8938599,5,10,5.8937988,10,6.9963989V18.00354C10,19.1061401,10.8938599,20,11.99646,20H17.00354
	C18.1061401,20,19,19.1061401,19,18.00354V6.9963989C19,5.8937988,18.1061401,5,17.00354,5z M14.5,19
	c-0.6904297,0-1.25-0.4473267-1.25-1c0-0.5527344,0.5595703-1,1.25-1c0.6895142,0,1.25,0.4472656,1.25,1
	C15.75,18.5526733,15.1895142,19,14.5,19z M17,16h-5V7h5V16z M8,16H3V2h12v1h2V2c0-1.1010742-0.8994141-2-2-2H3
	C1.9003906,0,1,0.8989258,1,2v16c0,1.0996094,0.9003906,2,2,2h5.5551758C8.2114258,19.4101562,8,18.7338867,8,18.003418V16z"/>
</svg>
