<?xml version="1.0" encoding="iso-8859-1"?>
<!-- Generator: Adobe Illustrator 18.1.0, SVG Export Plug-In . SVG Version: 6.00 Build 0)  -->
<!DOCTYPE svg PUBLIC "-//W3C//DTD SVG 1.1//EN" "http://www.w3.org/Graphics/SVG/1.1/DTD/svg11.dtd">
<svg version="1.1" id="Thumbs_up" xmlns="http://www.w3.org/2000/svg" xmlns:xlink="http://www.w3.org/1999/xlink" x="0px" y="0px"
	 viewBox="0 0 20 20" style="enable-background:new 0 0 20 20;" xml:space="preserve">
<path d="M13.648,7.362c-0.133-0.355,3.539-3.634,1.398-6.291c-0.501-0.621-2.201,2.975-4.615,4.603C9.099,6.572,6,8.484,6,9.541
	v6.842C6,17.654,10.914,19,14.648,19C16.017,19,18,10.424,18,9.062C18,7.694,13.779,7.718,13.648,7.362z M5,7.457
	c-0.658,0-3,0.4-3,3.123v4.848c0,2.721,2.342,3.021,3,3.021c0.657,0-1-0.572-1-2.26V9.816C4,8.048,5.657,7.457,5,7.457z"/>
</svg>
