<?xml version="1.0" encoding="utf-8"?>
<!-- Generator: Adobe Illustrator 18.1.0, SVG Export Plug-In . SVG Version: 6.00 Build 0)  -->
<!DOCTYPE svg PUBLIC "-//W3C//DTD SVG 1.1//EN" "http://www.w3.org/Graphics/SVG/1.1/DTD/svg11.dtd">
<svg version="1.1" id="Typing" xmlns="http://www.w3.org/2000/svg" xmlns:xlink="http://www.w3.org/1999/xlink" x="0px" y="0px"
	 viewBox="0 0 20 20" enable-background="new 0 0 20 20" xml:space="preserve">
<path d="M16,4H4C2.899,4,2,4.9,2,6v7c0,1.1,0.899,2,2,2h4l4,3v-3h4c1.1,0,2-0.9,2-2V6C18,4.9,17.1,4,16,4z M6,10.6
	c-0.607,0-1.1-0.492-1.1-1.1c0-0.608,0.492-1.1,1.1-1.1s1.1,0.492,1.1,1.1C7.1,10.107,6.607,10.6,6,10.6z M10,10.6
	c-0.607,0-1.1-0.492-1.1-1.1c0-0.608,0.492-1.1,1.1-1.1s1.1,0.492,1.1,1.1C11.1,10.107,10.607,10.6,10,10.6z M14,10.6
	c-0.607,0-1.1-0.492-1.1-1.1c0-0.608,0.492-1.1,1.1-1.1s1.1,0.492,1.1,1.1C15.1,10.107,14.607,10.6,14,10.6z"/>
</svg>
