<?xml version="1.0" encoding="utf-8"?>
<!-- Generator: Adobe Illustrator 18.1.0, SVG Export Plug-In . SVG Version: 6.00 Build 0)  -->
<!DOCTYPE svg PUBLIC "-//W3C//DTD SVG 1.1//EN" "http://www.w3.org/Graphics/SVG/1.1/DTD/svg11.dtd">
<svg version="1.1" id="Untag" xmlns="http://www.w3.org/2000/svg" xmlns:xlink="http://www.w3.org/1999/xlink" x="0px" y="0px"
	 viewBox="0 0 20 20" enable-background="new 0 0 20 20" xml:space="preserve">
<path d="M1,14.742l4.945-0.709L5.239,19l5.962-5.985L7.132,8.586L1,14.742z M18.664,5.521c0.391-0.393,0.5-0.945,0-1.419
	l-2.826-2.839c-0.279-0.308-1.021-0.392-1.412,0l-3.766,3.78l4.068,4.429L18.664,5.521z M18.706,15.293l-14.001-14
	c-0.391-0.391-1.023-0.391-1.414,0c-0.391,0.391-0.391,1.023,0,1.414l14.001,14C17.488,16.903,17.744,17,17.999,17
	c0.256,0,0.512-0.098,0.707-0.293C19.097,16.317,19.097,15.684,18.706,15.293z"/>
</svg>
