<?xml version="1.0" encoding="utf-8"?>
<!-- Generator: Adobe Illustrator 18.1.1, SVG Export Plug-In . SVG Version: 6.00 Build 0)  -->
<!DOCTYPE svg PUBLIC "-//W3C//DTD SVG 1.1//EN" "http://www.w3.org/Graphics/SVG/1.1/DTD/svg11.dtd">
<svg version="1.1" id="Video_camera" xmlns="http://www.w3.org/2000/svg" xmlns:xlink="http://www.w3.org/1999/xlink" x="0px"
	 y="0px" viewBox="0 0 20 20" enable-background="new 0 0 20 20" xml:space="preserve">
<path d="M10.5,10c0,1.380249-1.119751,2.5-2.5,2.5c-1.3810425,0-2.5-1.119751-2.5-2.5S6.6189575,7.5,8,7.5
	C9.380249,7.5,10.5,8.619751,10.5,10z M16,4v12c0,1.0996094-0.9003906,2-2,2H2c-1.0996094,0-2-0.9003906-2-2V4
	c0-1.0996094,0.9003906-2,2-2h12C15.0996094,2,16,2.9003906,16,4z M12.5,10c0-2.4855347-2.0153809-4.5-4.5-4.5
	c-2.4855347,0-4.5,2.0144653-4.5,4.5s2.0144653,4.5,4.5,4.5C10.4846191,14.5,12.5,12.4855347,12.5,10z M19.2151489,5.0856323
	L17,6.5623779v7l2.2151489,1.4768066C19.5506592,15.2628174,20,15.0223389,20,14.6191406V5.5056763
	C20,5.102478,19.5506592,4.8619385,19.2151489,5.0856323z"/>
</svg>
