<?xml version="1.0" encoding="utf-8"?>
<!-- Generator: Adobe Illustrator 18.1.0, SVG Export Plug-In . SVG Version: 6.00 Build 0)  -->
<!DOCTYPE svg PUBLIC "-//W3C//DTD SVG 1.1//EN" "http://www.w3.org/Graphics/SVG/1.1/DTD/svg11.dtd">
<svg version="1.1" id="Video" xmlns="http://www.w3.org/2000/svg" xmlns:xlink="http://www.w3.org/1999/xlink" x="0px" y="0px"
	 viewBox="0 0 20 20" enable-background="new 0 0 20 20" xml:space="preserve">
<path d="M20,5V3.799C20,3.357,19.643,3,19.201,3h-18.4C0.358,3,0,3.357,0,3.799V5h2v2H0v2h2v2H0v2h2v2H0v1.199
	C0,16.641,0.358,17,0.801,17h18.4C19.643,17,20,16.641,20,16.199V15h-2v-2h2v-2h-2V9h2V7h-2V5H20z M8,13V7l5,3L8,13z"/>
</svg>
