<?xml version="1.0" encoding="utf-8"?>
<!-- Generator: Adobe Illustrator 18.1.0, SVG Export Plug-In . SVG Version: 6.00 Build 0)  -->
<!DOCTYPE svg PUBLIC "-//W3C//DTD SVG 1.1//EN" "http://www.w3.org/Graphics/SVG/1.1/DTD/svg11.dtd">
<svg version="1.1" id="Wallet" xmlns="http://www.w3.org/2000/svg" xmlns:xlink="http://www.w3.org/1999/xlink" x="0px" y="0px"
	 viewBox="0 0 20 20" enable-background="new 0 0 20 20" xml:space="preserve">
<path d="M16,6H3.5V5.5l11-0.88V5.5H16V4c0-1.1-0.891-1.872-1.979-1.717L3.98,3.717C2.891,3.873,2,4.9,2,6v10c0,1.104,0.895,2,2,2h12
	c1.104,0,2-0.896,2-2V8C18,6.896,17.104,6,16,6z M14.5,13.006c-0.828,0-1.5-0.672-1.5-1.5s0.672-1.5,1.5-1.5s1.5,0.672,1.5,1.5
	S15.328,13.006,14.5,13.006z"/>
</svg>
