<?xml version="1.0" encoding="UTF-8" standalone="no"?>
<!-- Created with Inkscape (http://www.inkscape.org/) -->

<svg
   xmlns:dc="http://purl.org/dc/elements/1.1/"
   xmlns:cc="http://creativecommons.org/ns#"
   xmlns:rdf="http://www.w3.org/1999/02/22-rdf-syntax-ns#"
   xmlns:svg="http://www.w3.org/2000/svg"
   xmlns="http://www.w3.org/2000/svg"
   xmlns:sodipodi="http://sodipodi.sourceforge.net/DTD/sodipodi-0.dtd"
   xmlns:inkscape="http://www.inkscape.org/namespaces/inkscape"
   width="744.09448819"
   height="1052.3622047"
   id="svg2"
   version="1.1"
   inkscape:version="0.48.4 r9939"
   sodipodi:docname="New document 1">
  <defs
     id="defs4" />
  <sodipodi:namedview
     id="base"
     pagecolor="#ffffff"
     bordercolor="#666666"
     borderopacity="1.0"
     inkscape:pageopacity="0.0"
     inkscape:pageshadow="2"
     inkscape:zoom="0.35"
     inkscape:cx="375"
     inkscape:cy="520"
     inkscape:document-units="px"
     inkscape:current-layer="layer1"
     showgrid="false"
     inkscape:window-width="1109"
     inkscape:window-height="682"
     inkscape:window-x="895"
     inkscape:window-y="307"
     inkscape:window-maximized="0" />
  <metadata
     id="metadata7">
    <rdf:RDF>
      <cc:Work
         rdf:about="">
        <dc:format>image/svg+xml</dc:format>
        <dc:type
           rdf:resource="http://purl.org/dc/dcmitype/StillImage" />
        <dc:title></dc:title>
      </cc:Work>
    </rdf:RDF>
  </metadata>
  <g
     inkscape:label="Layer 1"
     inkscape:groupmode="layer"
     id="layer1">
    <g
       style="overflow:visible"
       id="g2995"
       transform="translate(62.5,66.290754)">
      <path
         id="path2987"
         d="m 204.10463,161.30817 c -10.42462,-0.11754 -19.00194,2.29431 -19.00194,2.29431 -40.85284,8.39732 -64.1028,59.8975 -85.602942,57.39757 -15,0 -40.500099,-33.00002 -41.000103,-28.50011 -0.499996,4.49991 3.500027,116.00082 73.500035,121.00082 60,4.99961 106.50032,-64.25055 106.50032,-64.25055 l 0.79802,0.666 c 0,0 46.50035,69.25014 106.50035,64.25054 70,-5 74,-116.5009 73.5,-121.00081 -0.5,-4.49991 -26.00009,28.50009 -41.00009,28.50009 -21.50012,2.49997 -44.75009,-49.00026 -85.60294,-57.39755 0,0 -18.14703,-5.10275 -33.73031,-0.10222 -6.01564,2.5779 -12.83693,4.56932 -19.22791,9.34074 l -0.41124,0.3208 -1.26497,-0.98678 c -6.39099,-4.77144 -13.21226,-6.76286 -19.22789,-9.34075 -4.86978,-1.56266 -9.98991,-2.13868 -14.72839,-2.1921 z M 237.5,0.5 c 130.89148,0 237,106.10851 237,237 0,130.89148 -106.10852,237 -237,237 -130.89149,0 -237,-106.10852 -237,-237 0,-130.89149 106.10851,-237 237,-237 z"
         inkscape:connector-curvature="0"
         style="fill:#0071bd;stroke:#000000" />
    </g>
  </g>
</svg>
